<svg width="30" height="26" viewBox="0 0 30 26" fill="none" xmlns="http://www.w3.org/2000/svg">
<path d="M28.2784 4.77442H23.3782L21.7434 1.36502C21.5725 1.00621 21.1438 0.757324 20.7463 0.757324H9.25368C8.85615 0.757324 8.42752 1.00621 8.25675 1.36493L6.62179 4.77442H1.72162C0.778974 4.77442 0 5.54305 0 6.48562V20.3767C0 21.3193 0.778974 22.1248 1.72162 22.1248H10.4922C12.1261 24.0051 14.5506 25.2426 17.2528 25.2426C19.955 25.2426 22.3796 24.0051 24.0133 22.1248H28.2785C29.221 22.1248 30.0001 21.3193 30.0001 20.3767V6.48562C30 5.54305 29.221 4.77442 28.2784 4.77442ZM7.94872 10.0736C7.94872 10.3096 7.75735 10.5009 7.52137 10.5009H3.84615C3.61017 10.5009 3.4188 10.3096 3.4188 10.0736V8.19323C3.4188 7.95724 3.61017 7.76588 3.84615 7.76588H7.52137C7.75735 7.76588 7.94872 7.95724 7.94872 8.19323V10.0736ZM17.2527 23.5801C13.2334 23.5801 9.97547 20.322 9.97547 16.3027C9.97547 12.2833 13.2334 9.02528 17.2527 9.02528C21.2719 9.02528 24.53 12.2833 24.53 16.3027C24.53 20.322 21.272 23.5801 17.2527 23.5801Z" fill="currentColor"/>
<path d="M17.2527 10.9929C14.325 10.9929 11.9431 13.3748 11.9431 16.3026C11.9431 17.0106 12.5171 17.5846 13.2251 17.5846C13.9331 17.5846 14.5072 17.0106 14.5072 16.3026C14.5072 14.7886 15.7388 13.557 17.2527 13.557C17.9607 13.557 18.5347 12.983 18.5347 12.275C18.5347 11.5669 17.9608 10.9929 17.2527 10.9929Z" fill="currentColor"/>
</svg>
