<svg width="40" height="40" viewBox="0 0 40 40" fill="none" xmlns="http://www.w3.org/2000/svg">
<path d="M39.1406 23.5V16.3359H35.6016C35.1875 14.5859 34.4844 12.9531 33.5391 11.4844L36.1094 8.92969L31.0391 3.88281L28.4297 6.48438C26.9609 5.58594 25.3359 4.92969 23.6016 4.54688V0.859375H16.4062V4.63281C14.6875 5.05469 13.0781 5.75781 11.6328 6.69531L8.96094 4.03906L3.89062 9.08594L6.64844 11.8359C6.42969 12.1953 6.23438 12.5547 6.04688 12.9297C5.46094 14.0469 5.01562 15.2734 4.71094 16.5H0.859375V23.6641H4.78906C4.90625 24.1328 5.04687 24.5938 5.20312 25.0547C5.21094 25.0859 5.22656 25.1172 5.23438 25.1484C5.23438 25.1562 5.24219 25.1641 5.24219 25.1797C5.625 26.2891 6.125 27.3438 6.73437 28.3203L3.96094 31.0781L9.03125 36.125L11.7734 33.3984C13.2031 34.2969 14.7891 34.9766 16.4766 35.3828V39.1406H23.5938V35.4609C25.3672 35.0703 27.0313 34.3906 28.5234 33.4609L31.0391 35.9609L36.1094 30.9141L33.6016 28.4219C34.5391 26.9297 35.2344 25.2734 35.6328 23.5078H39.1406V23.5ZM31.7344 28.5L34.0703 30.8281L31.2109 33.6797L28.9062 31.3828C26.9766 32.8594 24.6562 33.8594 22.1328 34.1953V37.5078H18.125V34.1719C15.6641 33.8125 13.4062 32.8281 11.5156 31.3828L9.04688 33.8438L6.1875 30.9922L8.71875 28.5469C7.32031 26.6719 6.375 24.4531 6.03125 22.0312H2.49219V18.0391H5.92969L6.04688 17.7578C6.41406 15.4375 7.33594 13.2969 8.67188 11.4844L6.17188 8.99219L9.03125 6.14062L11.4531 8.63281C13.3281 7.1875 15.5781 6.19531 18.0234 5.82031V2.48437H22.0312V5.78906C24.5312 6.10937 26.8203 7.07031 28.75 8.50781L31.1172 6.15625L33.8984 9.00781L31.5859 11.3125C33.0078 13.1719 33.9844 15.3906 34.3594 17.8047H37.9063V21.7969H34.4141C34.1094 24.2812 33.1563 26.5703 31.7344 28.5V28.5Z" fill="#ECEFFD"/>
<path d="M20.0781 11.2031C15.25 11.2031 11.2422 15.1094 11.2422 20C11.2422 24.8906 15.2578 28.7969 20.0781 28.7969C24.8984 28.7969 28.9141 24.8047 28.9141 20C28.9141 15.1953 24.9062 11.2031 20.0781 11.2031ZM20.0781 27.1641C16.0703 27.1641 12.8828 23.9844 12.8828 20C12.8828 16.0078 16.1562 12.8359 20.0781 12.8359C24 12.8359 27.2734 16.0156 27.2734 20C27.2812 23.9922 24.0078 27.1641 20.0781 27.1641Z" fill="#ECEFFD"/>
</svg>
