<svg width="28" height="24" viewBox="0 0 28 24" fill="none" xmlns="http://www.w3.org/2000/svg">
<path d="M24.2481 21.4138H3.7519C3.33418 21.4138 3 21.9885 3 22.7069C3 23.4253 3.33418 24 3.7519 24H24.2481C24.6658 24 25 23.4253 25 22.7069C25 21.9885 24.6658 21.4138 24.2481 21.4138Z" fill="black"/>
<path d="M13.328 18.8014C13.5048 18.9255 13.7524 19 13.9999 19C14.2474 19 14.4949 18.9305 14.6717 18.8014L22.2743 13.4643C22.6492 13.2012 22.6492 12.7792 22.2743 12.5161C21.8995 12.2529 21.2984 11.3893 20.9235 11.6524L17.9391 13.7475L14.9546 15.8427V0.670238C14.9546 0.297883 14.5303 0 13.9999 0C13.4695 0 13.0451 0.297883 13.0451 0.670238V15.8427L7.07624 11.6524C6.70141 11.3893 6.10028 12.2529 5.72545 12.5161C5.35063 12.7792 5.35063 13.2012 5.72545 13.4643L13.328 18.8014Z" fill="black"/>
</svg>
