<svg width="93" height="85" viewBox="0 0 93 85" fill="none" xmlns="http://www.w3.org/2000/svg">
<path d="M13.8367 74.8019C12.6871 74.8019 11.6086 74.5891 10.601 74.1633C9.60761 73.7234 8.73484 73.1202 7.98269 72.3539C7.24474 71.5734 6.66289 70.6651 6.23715 69.6291C5.8256 68.5932 5.61982 67.4721 5.61982 66.2658C5.61982 65.0737 5.8256 63.9668 6.23715 62.945C6.66289 61.909 7.24474 61.0079 7.98269 60.2415C8.73484 59.461 9.60761 58.8508 10.601 58.4108C11.5944 57.9709 12.673 57.7509 13.8367 57.7509C14.9294 57.7509 15.866 57.8928 16.6466 58.1767C17.4413 58.4605 18.236 58.9288 19.0307 59.5816C19.1442 59.6668 19.2294 59.759 19.2862 59.8584C19.3571 59.9435 19.3997 60.0357 19.4139 60.1351C19.4423 60.2202 19.4565 60.3267 19.4565 60.4544C19.4565 60.724 19.3571 60.9511 19.1584 61.1356C18.9739 61.3201 18.7398 61.4194 18.456 61.4336C18.1863 61.4478 17.9309 61.3556 17.6896 61.1569C17.1645 60.7027 16.6182 60.3551 16.0505 60.1138C15.4971 59.8725 14.7591 59.7519 13.8367 59.7519C12.9994 59.7519 12.2117 59.9222 11.4738 60.2628C10.7358 60.6034 10.083 61.0717 9.51537 61.6678C8.9619 62.2638 8.52906 62.9592 8.21685 63.7539C7.90464 64.5344 7.74854 65.3717 7.74854 66.2658C7.74854 67.174 7.90464 68.0255 8.21685 68.8202C8.52906 69.6008 8.9619 70.2891 9.51537 70.8851C10.083 71.4811 10.7358 71.9494 11.4738 72.29C12.2117 72.6164 12.9994 72.7796 13.8367 72.7796C14.5604 72.7796 15.2416 72.659 15.8802 72.4178C16.533 72.1623 17.1574 71.8146 17.7535 71.3747C18.0089 71.1902 18.2573 71.1122 18.4985 71.1405C18.754 71.1547 18.9669 71.2541 19.1372 71.4386C19.3074 71.6089 19.3926 71.8501 19.3926 72.1623C19.3926 72.3042 19.3642 72.4461 19.3074 72.5881C19.2649 72.7158 19.1797 72.8364 19.052 72.9499C18.2999 73.5744 17.4838 74.0427 16.604 74.3549C15.7241 74.6529 14.8017 74.8019 13.8367 74.8019ZM19.3926 72.1623L17.2639 71.7366V67.9262H14.3263C14.014 67.9262 13.7515 67.8339 13.5386 67.6494C13.3258 67.465 13.2193 67.2308 13.2193 66.947C13.2193 66.6631 13.3258 66.429 13.5386 66.2445C13.7515 66.06 14.014 65.9678 14.3263 65.9678H18.307C18.6334 65.9678 18.8959 66.0742 19.0946 66.2871C19.2933 66.4857 19.3926 66.7483 19.3926 67.0747V72.1623Z" fill="white"/>
<path d="M10.601 74.1633L10.17 75.1365L10.1784 75.1402L10.1867 75.1437L10.601 74.1633ZM7.98269 72.3539L7.20928 73.0851L7.21611 73.0924L7.22308 73.0994L7.98269 72.3539ZM6.23715 69.6291L5.24792 70.0221L5.25268 70.0337L6.23715 69.6291ZM6.23715 62.945L5.25266 62.5404L5.24987 62.5473L6.23715 62.945ZM7.98269 60.2415L7.21627 59.503L7.21602 59.5032L7.98269 60.2415ZM10.601 58.4108L10.17 57.4376L10.17 57.4376L10.601 58.4108ZM16.6466 58.1767L16.2828 59.177L16.2886 59.179L16.6466 58.1767ZM19.0307 59.5816L18.3551 60.4041L18.3733 60.419L18.3921 60.4331L19.0307 59.5816ZM19.2862 59.8584L18.362 60.3864L18.4085 60.4678L18.4685 60.5397L19.2862 59.8584ZM19.4139 60.1351L18.3602 60.2856L18.3738 60.3806L18.4041 60.4717L19.4139 60.1351ZM19.1584 61.1356L18.4342 60.3556L18.4198 60.369L18.4058 60.383L19.1584 61.1356ZM18.456 61.4336L18.4028 60.3706L18.4 60.3707L18.456 61.4336ZM17.6896 61.1569L16.9934 61.9619L17.0031 61.9703L17.013 61.9785L17.6896 61.1569ZM16.0505 60.1138L15.6252 61.0895L15.6342 61.0934L16.0505 60.1138ZM9.51537 61.6678L8.74456 60.9337L8.73541 60.9435L9.51537 61.6678ZM8.21685 63.7539L9.2051 64.1492L9.2075 64.1431L8.21685 63.7539ZM8.21685 68.8202L7.22618 69.2094L7.22862 69.2155L8.21685 68.8202ZM9.51537 70.8851L8.73535 71.6094L8.74463 71.6191L9.51537 70.8851ZM11.4738 72.29L11.0278 73.2564L11.0355 73.26L11.0432 73.2634L11.4738 72.29ZM15.8802 72.4178L16.2564 73.4135L16.2681 73.4089L15.8802 72.4178ZM17.7535 71.3747L17.1303 70.5118L17.1214 70.5183L17.7535 71.3747ZM18.4985 71.1405L18.3742 72.1976L18.4067 72.2014L18.4395 72.2033L18.4985 71.1405ZM19.1372 71.4386L18.3551 72.1605L18.3695 72.1761L18.3845 72.1912L19.1372 71.4386ZM19.3074 72.5881L18.3192 72.1928L18.3076 72.2218L18.2977 72.2515L19.3074 72.5881ZM19.052 72.9499L19.7319 73.7689L19.7457 73.7574L19.7591 73.7455L19.052 72.9499ZM16.604 74.3549L16.9454 75.363L16.9527 75.3605L16.9599 75.358L16.604 74.3549ZM19.3926 72.1623L19.1839 73.206L20.457 73.4606V72.1623H19.3926ZM17.2639 71.7366H16.1995V72.6091L17.0551 72.7803L17.2639 71.7366ZM17.2639 67.9262H18.3282V66.8618H17.2639V67.9262ZM13.5386 67.6494L12.8416 68.4538L12.8416 68.4538L13.5386 67.6494ZM13.5386 66.2445L12.8416 65.4402L12.8416 65.4402L13.5386 66.2445ZM19.0946 66.2871L18.3165 67.0133L18.329 67.0267L18.342 67.0397L19.0946 66.2871ZM13.8367 73.7376C12.8221 73.7376 11.8852 73.5504 11.0153 73.1829L10.1867 75.1437C11.332 75.6277 12.5522 75.8663 13.8367 75.8663V73.7376ZM11.032 73.1901C10.16 72.804 9.39914 72.2776 8.74231 71.6084L7.22308 73.0994C8.07054 73.9629 9.05517 74.6428 10.17 75.1365L11.032 73.1901ZM8.75611 71.6227C8.11178 70.9412 7.59982 70.1449 7.22162 69.2246L5.25268 70.0337C5.72596 71.1854 6.3777 72.2056 7.20928 73.0851L8.75611 71.6227ZM7.22631 69.2362C6.86839 68.3352 6.68418 67.3486 6.68418 66.2658H4.55547C4.55547 67.5955 4.78281 68.8511 5.24799 70.0221L7.22631 69.2362ZM6.68418 66.2658C6.68418 65.1987 6.86784 64.228 7.22443 63.3426L5.24987 62.5473C4.78336 63.7056 4.55547 64.9487 4.55547 66.2658H6.68418ZM7.22162 63.3496C7.59914 62.4309 8.10922 61.6446 8.74937 60.9798L7.21602 59.5032C6.38026 60.3711 5.72664 61.3871 5.25268 62.5404L7.22162 63.3496ZM8.74911 60.9801C9.40546 60.299 10.1642 59.7683 11.032 59.384L10.17 57.4376C9.05098 57.9332 8.06422 58.623 7.21627 59.503L8.74911 60.9801ZM11.032 59.384C11.8802 59.0084 12.8107 58.8153 13.8367 58.8153V56.6866C12.5352 56.6866 11.3086 56.9334 10.17 57.4376L11.032 59.384ZM13.8367 58.8153C14.8423 58.8153 15.6492 58.9465 16.2828 59.1769L17.0103 57.1764C16.0829 56.8392 15.0165 56.6866 13.8367 56.6866V58.8153ZM16.2886 59.179C16.9457 59.4137 17.6351 59.8126 18.3551 60.4041L19.7063 58.7592C18.8369 58.045 17.9368 57.5073 17.0045 57.1743L16.2886 59.179ZM18.3921 60.4331C18.4165 60.4514 18.3925 60.4397 18.362 60.3864L20.2103 59.3303C20.0663 59.0784 19.872 58.8821 19.6693 58.7301L18.3921 60.4331ZM18.4685 60.5397C18.4267 60.4896 18.3768 60.4017 18.3602 60.2856L20.4675 59.9846C20.4226 59.6697 20.2875 59.3974 20.1038 59.177L18.4685 60.5397ZM18.4041 60.4717C18.3987 60.4552 18.3954 60.4423 18.3935 60.4338C18.3916 60.4253 18.3909 60.4203 18.3908 60.4194C18.3907 60.4185 18.391 60.4209 18.3914 60.427C18.3918 60.433 18.3921 60.4421 18.3921 60.4544H20.5208C20.5208 60.2565 20.4999 60.0274 20.4236 59.7985L18.4041 60.4717ZM18.3921 60.4544C18.3921 60.4554 18.3926 60.4328 18.4068 60.4003C18.421 60.368 18.4367 60.3533 18.4342 60.3556L19.8827 61.9155C20.2969 61.5309 20.5208 61.0219 20.5208 60.4544H18.3921ZM18.4058 60.383C18.4058 60.383 18.4084 60.3805 18.4135 60.377C18.4187 60.3735 18.4241 60.3706 18.4288 60.3686C18.4334 60.3667 18.4348 60.3666 18.4316 60.3673C18.4283 60.368 18.4191 60.3698 18.4028 60.3706L18.5091 62.4966C19.031 62.4705 19.5226 62.2766 19.9111 61.8882L18.4058 60.383ZM18.4 60.3707C18.4024 60.3706 18.407 60.3706 18.4129 60.3715C18.4187 60.3724 18.4226 60.3736 18.4237 60.374C18.4263 60.3749 18.4068 60.3687 18.3662 60.3353L17.013 61.9785C17.4251 62.3179 17.9349 62.5269 18.5119 62.4965L18.4 60.3707ZM18.3859 60.3518C17.7875 59.8343 17.1482 59.4238 16.4668 59.1342L15.6342 61.0934C16.0882 61.2863 16.5416 61.5712 16.9934 61.9619L18.3859 60.3518ZM16.4758 59.1381C15.7364 58.8158 14.8358 58.6876 13.8367 58.6876V60.8163C14.6824 60.8163 15.2577 60.9293 15.6252 61.0895L16.4758 59.1381ZM13.8367 58.6876C12.8501 58.6876 11.9098 58.8893 11.0278 59.2964L11.9198 61.2292C12.5137 60.9551 13.1486 60.8163 13.8367 60.8163V58.6876ZM11.0278 59.2964C10.1663 59.694 9.40369 60.2417 8.74463 60.9337L10.2861 62.4018C10.7624 61.9017 11.3054 61.5128 11.9198 61.2292L11.0278 59.2964ZM8.73541 60.9435C8.08693 61.6419 7.58462 62.4524 7.2262 63.3647L9.2075 64.1431C9.4735 63.466 9.83688 62.8857 10.2953 62.392L8.73541 60.9435ZM7.22862 63.3586C6.86299 64.2727 6.68418 65.245 6.68418 66.2658H8.81289C8.81289 65.4984 8.94629 64.7962 9.20508 64.1492L7.22862 63.3586ZM6.68418 66.2658C6.68418 67.2987 6.86225 68.283 7.2262 69.2094L9.2075 68.4311C8.94704 67.768 8.81289 67.0494 8.81289 66.2658H6.68418ZM7.22862 69.2155C7.58778 70.1134 8.0899 70.9142 8.73541 71.6093L10.2953 70.1608C9.8339 69.6639 9.47034 69.0881 9.20508 68.4249L7.22862 69.2155ZM8.74463 71.6191C9.40369 72.3111 10.1663 72.8588 11.0278 73.2564L11.9198 71.3236C11.3054 71.0401 10.7624 70.6511 10.2861 70.1511L8.74463 71.6191ZM11.0432 73.2634C11.9219 73.6521 12.8568 73.844 13.8367 73.844V71.7153C13.1419 71.7153 12.5015 71.5808 11.9043 71.3166L11.0432 73.2634ZM13.8367 73.844C14.6811 73.844 15.4904 73.7028 16.2564 73.4134L15.5041 71.4221C14.9928 71.6152 14.4397 71.7153 13.8367 71.7153V73.844ZM16.2681 73.4089C17.0126 73.1176 17.7186 72.7233 18.3856 72.231L17.1214 70.5183C16.5963 70.906 16.0534 71.2071 15.4924 71.4266L16.2681 73.4089ZM18.3767 72.2375C18.4307 72.1985 18.4553 72.1917 18.4505 72.1932C18.4476 72.1941 18.4384 72.1966 18.4237 72.1981C18.4088 72.1996 18.3918 72.1997 18.3742 72.1976L18.6229 70.0835C18.0458 70.0156 17.5357 70.2191 17.1303 70.5118L18.3767 72.2375ZM18.4395 72.2033C18.4439 72.2035 18.4267 72.2028 18.3997 72.1902C18.3723 72.1774 18.3572 72.1628 18.3551 72.1605L19.9192 70.7166C19.5574 70.3246 19.0833 70.107 18.5576 70.0778L18.4395 72.2033ZM18.3845 72.1912C18.369 72.1757 18.3555 72.1584 18.3446 72.1409C18.3338 72.1235 18.3279 72.1095 18.3251 72.1015C18.3197 72.0864 18.3282 72.1012 18.3282 72.1623H20.457C20.457 71.6551 20.3139 71.1101 19.8898 70.6859L18.3845 72.1912ZM18.3282 72.1623C18.3282 72.1618 18.3283 72.1629 18.3276 72.1665C18.3269 72.1702 18.3248 72.1788 18.3192 72.1928L20.2957 72.9834C20.3988 72.7255 20.457 72.4498 20.457 72.1623H18.3282ZM18.2977 72.2515C18.3279 72.1608 18.3702 72.132 18.3449 72.1544L19.7591 73.7455C19.9893 73.5409 20.2018 73.2708 20.3172 72.9246L18.2977 72.2515ZM18.3721 72.131C17.7117 72.6793 17.0045 73.0834 16.2481 73.3518L16.9599 75.358C17.9632 75.002 18.888 74.4694 19.7319 73.7689L18.3721 72.131ZM16.2625 73.3468C15.4969 73.6061 14.6901 73.7376 13.8367 73.7376V75.8663C14.9132 75.8663 15.9513 75.6997 16.9454 75.363L16.2625 73.3468ZM19.6013 71.1186L17.4726 70.6929L17.0551 72.7803L19.1839 73.206L19.6013 71.1186ZM18.3282 71.7366V67.9262H16.1995V71.7366H18.3282ZM17.2639 66.8618H14.3263V68.9905H17.2639V66.8618ZM14.3263 66.8618C14.2758 66.8618 14.253 66.8546 14.248 66.8528C14.2446 66.8516 14.2423 66.8508 14.2357 66.8451L12.8416 68.4538C13.2693 68.8245 13.7877 68.9905 14.3263 68.9905V66.8618ZM14.2357 66.8451C14.2339 66.8435 14.2521 66.8598 14.2681 66.895C14.284 66.93 14.2837 66.9528 14.2837 66.947H12.155C12.155 67.5368 12.3934 68.0654 12.8416 68.4538L14.2357 66.8451ZM14.2837 66.947C14.2837 66.9411 14.284 66.9639 14.2681 66.9989C14.2521 67.0341 14.2339 67.0504 14.2357 67.0488L12.8416 65.4402C12.3934 65.8286 12.155 66.3572 12.155 66.947H14.2837ZM14.2357 67.0488C14.2423 67.0431 14.2446 67.0423 14.248 67.0411C14.253 67.0394 14.2758 67.0321 14.3263 67.0321V64.9034C13.7877 64.9034 13.2693 65.0694 12.8416 65.4402L14.2357 67.0488ZM14.3263 67.0321H18.307V64.9034H14.3263V67.0321ZM18.307 67.0321C18.3307 67.0321 18.3447 67.0341 18.3505 67.0351C18.356 67.0361 18.3547 67.0364 18.3488 67.034C18.3426 67.0315 18.3351 67.0276 18.3277 67.0225C18.3243 67.0201 18.3215 67.0179 18.3195 67.0161C18.3185 67.0152 18.3177 67.0145 18.3172 67.014C18.3167 67.0135 18.3165 67.0133 18.3165 67.0133L19.8727 65.5608C19.4473 65.1051 18.8889 64.9034 18.307 64.9034V67.0321ZM18.342 67.0397C18.3397 67.0374 18.3355 67.0327 18.331 67.0257C18.3265 67.0187 18.3238 67.0128 18.3226 67.0097C18.32 67.0027 18.3282 67.0196 18.3282 67.0747H20.457C20.457 66.5153 20.2779 65.9651 19.8472 65.5345L18.342 67.0397ZM18.3282 67.0747V72.1623H20.457V67.0747H18.3282Z" fill="white"/>
<path d="M24.5015 69.4801C24.1893 69.4801 23.9267 69.3808 23.7138 69.1821C23.5152 68.9692 23.4158 68.7067 23.4158 68.3945V58.9217C23.4158 58.5953 23.5152 58.3328 23.7138 58.1341C23.9267 57.9354 24.1893 57.8361 24.5015 57.8361C24.8279 57.8361 25.0904 57.9354 25.2891 58.1341C25.4878 58.3328 25.5871 58.5953 25.5871 58.9217V68.3945C25.5871 68.7067 25.4878 68.9692 25.2891 69.1821C25.0904 69.3808 24.8279 69.4801 24.5015 69.4801ZM24.5015 55.9415C24.1183 55.9415 23.7848 55.8067 23.501 55.5371C23.2313 55.2532 23.0965 54.9197 23.0965 54.5366C23.0965 54.1534 23.2313 53.827 23.501 53.5574C23.7848 53.2735 24.1183 53.1316 24.5015 53.1316C24.8846 53.1316 25.211 53.2735 25.4807 53.5574C25.7645 53.827 25.9064 54.1534 25.9064 54.5366C25.9064 54.9197 25.7645 55.2532 25.4807 55.5371C25.211 55.8067 24.8846 55.9415 24.5015 55.9415Z" fill="white"/>
<path d="M23.7138 69.1821L22.9357 69.9083L22.9608 69.9352L22.9876 69.9602L23.7138 69.1821ZM23.7138 58.1341L22.9876 57.356L22.9742 57.3685L22.9612 57.3815L23.7138 58.1341ZM25.2891 69.1821L26.0417 69.9347L26.0547 69.9218L26.0672 69.9083L25.2891 69.1821ZM23.501 55.5371L22.7293 56.2701L22.7481 56.2899L22.7679 56.3087L23.501 55.5371ZM23.501 53.5574L22.7484 52.8047L22.7484 52.8047L23.501 53.5574ZM25.4807 53.5574L24.709 54.2904L24.7278 54.3102L24.7476 54.329L25.4807 53.5574ZM25.4807 55.5371L26.2333 56.2897L25.4807 55.5371ZM24.5015 68.4158C24.4799 68.4158 24.4658 68.4141 24.4579 68.4127C24.4539 68.412 24.4512 68.4114 24.4496 68.4109C24.448 68.4105 24.4472 68.4102 24.4471 68.4102C24.447 68.4101 24.4472 68.4102 24.4476 68.4104C24.448 68.4106 24.4482 68.4107 24.4481 68.4107C24.4481 68.4106 24.4475 68.4103 24.4462 68.4093C24.445 68.4084 24.4429 68.4067 24.4401 68.404L22.9876 69.9602C23.4126 70.3569 23.941 70.5445 24.5015 70.5445V68.4158ZM24.4919 68.4559C24.4893 68.453 24.4876 68.451 24.4866 68.4497C24.4857 68.4485 24.4853 68.4479 24.4853 68.4478C24.4852 68.4478 24.4854 68.448 24.4856 68.4484C24.4858 68.4488 24.4858 68.449 24.4858 68.4489C24.4858 68.4488 24.4855 68.448 24.485 68.4464C24.4846 68.4448 24.4839 68.4421 24.4833 68.4381C24.4819 68.4301 24.4802 68.416 24.4802 68.3945H22.3515C22.3515 68.955 22.5391 69.4833 22.9357 69.9083L24.4919 68.4559ZM24.4802 68.3945V58.9217H22.3515V68.3945H24.4802ZM24.4802 58.9217C24.4802 58.8666 24.4884 58.8497 24.4858 58.8567C24.4846 58.8599 24.4819 58.8658 24.4774 58.8727C24.4729 58.8797 24.4687 58.8845 24.4665 58.8867L22.9612 57.3815C22.5306 57.8121 22.3515 58.3624 22.3515 58.9217H24.4802ZM24.4401 58.9122C24.4429 58.9095 24.445 58.9078 24.4462 58.9069C24.4475 58.9059 24.4481 58.9056 24.4481 58.9055C24.4482 58.9055 24.448 58.9056 24.4476 58.9058C24.4472 58.906 24.447 58.9061 24.4471 58.9061C24.4472 58.906 24.448 58.9057 24.4496 58.9053C24.4512 58.9049 24.4539 58.9042 24.4579 58.9035C24.4658 58.9021 24.4799 58.9004 24.5015 58.9004V56.7717C23.941 56.7717 23.4126 56.9593 22.9876 57.356L24.4401 58.9122ZM24.5015 58.9004C24.5566 58.9004 24.5735 58.9087 24.5665 58.9061C24.5633 58.9049 24.5574 58.9022 24.5505 58.8977C24.5435 58.8932 24.5387 58.889 24.5365 58.8867L26.0417 57.3815C25.611 56.9508 25.0608 56.7717 24.5015 56.7717V58.9004ZM24.5365 58.8867C24.5342 58.8845 24.53 58.8797 24.5255 58.8727C24.521 58.8658 24.5183 58.8599 24.5171 58.8567C24.5145 58.8497 24.5228 58.8666 24.5228 58.9217H26.6515C26.6515 58.3624 26.4724 57.8121 26.0417 57.3815L24.5365 58.8867ZM24.5228 58.9217V68.3945H26.6515V58.9217H24.5228ZM24.5228 68.3945C24.5228 68.416 24.521 68.4301 24.5197 68.4381C24.519 68.4421 24.5183 68.4448 24.5179 68.4464C24.5175 68.448 24.5172 68.4488 24.5171 68.4489C24.5171 68.449 24.5172 68.4488 24.5174 68.4484C24.5176 68.448 24.5177 68.4478 24.5177 68.4478C24.5176 68.4479 24.5172 68.4485 24.5163 68.4497C24.5153 68.451 24.5137 68.453 24.511 68.4559L26.0672 69.9083C26.4639 69.4833 26.6515 68.955 26.6515 68.3945H24.5228ZM24.5365 68.4295C24.5387 68.4272 24.5435 68.423 24.5505 68.4185C24.5574 68.414 24.5633 68.4114 24.5665 68.4102C24.5735 68.4075 24.5566 68.4158 24.5015 68.4158V70.5445C25.0608 70.5445 25.611 70.3654 26.0417 69.9347L24.5365 68.4295ZM24.5015 54.8772C24.3977 54.8772 24.3248 54.8517 24.234 54.7654L22.7679 56.3087C23.2448 56.7617 23.8389 57.0059 24.5015 57.0059V54.8772ZM24.2726 54.804C24.1864 54.7132 24.1609 54.6404 24.1609 54.5366H22.0322C22.0322 55.1991 22.2763 55.7933 22.7293 56.2701L24.2726 54.804ZM24.1609 54.5366C24.1609 54.4341 24.1846 54.3789 24.2536 54.31L22.7484 52.8047C22.278 53.2751 22.0322 53.8727 22.0322 54.5366H24.1609ZM24.2536 54.31C24.3484 54.2152 24.4152 54.196 24.5015 54.196V52.0673C23.8214 52.0673 23.2212 52.3319 22.7484 52.8047L24.2536 54.31ZM24.5015 54.196C24.5858 54.196 24.6354 54.2129 24.709 54.2904L26.2523 52.8243C25.7867 52.3341 25.1835 52.0673 24.5015 52.0673V54.196ZM24.7476 54.329C24.8251 54.4026 24.8421 54.4522 24.8421 54.5366H26.9708C26.9708 53.8546 26.7039 53.2514 26.2137 52.7857L24.7476 54.329ZM24.8421 54.5366C24.8421 54.6228 24.8229 54.6897 24.7281 54.7844L26.2333 56.2897C26.7061 55.8168 26.9708 55.2166 26.9708 54.5366H24.8421ZM24.7281 54.7844C24.6591 54.8534 24.6039 54.8772 24.5015 54.8772V57.0059C25.1654 57.0059 25.763 56.76 26.2333 56.2897L24.7281 54.7844Z" fill="white"/>
<path d="M50.3441 69.5653C49.2371 69.5653 48.2437 69.3098 47.3639 68.7989C46.484 68.2739 45.7886 67.5643 45.2777 66.6702C44.7668 65.7762 44.5043 64.7686 44.4901 63.6475V53.9405C44.4901 53.6141 44.5894 53.3516 44.7881 53.1529C45.001 52.9542 45.2635 52.8549 45.5757 52.8549C45.9021 52.8549 46.1647 52.9542 46.3634 53.1529C46.562 53.3516 46.6614 53.6141 46.6614 53.9405V59.6881C47.1581 59.092 47.7541 58.6237 48.4495 58.2831C49.1591 57.9283 49.9325 57.7509 50.7698 57.7509C51.8058 57.7509 52.7353 58.0135 53.5584 58.5385C54.3815 59.0494 55.0272 59.7519 55.4955 60.646C55.978 61.5258 56.2193 62.5263 56.2193 63.6475C56.2193 64.7686 55.9568 65.7762 55.4317 66.6702C54.9208 67.5643 54.2254 68.2739 53.3455 68.7989C52.4657 69.3098 51.4652 69.5653 50.3441 69.5653ZM50.3441 67.6494C51.0678 67.6494 51.7135 67.4791 52.2812 67.1385C52.8488 66.7838 53.2959 66.3013 53.6223 65.691C53.9629 65.0808 54.1332 64.3996 54.1332 63.6475C54.1332 62.8811 53.9629 62.1999 53.6223 61.6039C53.2959 61.0079 52.8488 60.5395 52.2812 60.1989C51.7135 59.8442 51.0678 59.6668 50.3441 59.6668C49.6345 59.6668 48.9888 59.8442 48.4069 60.1989C47.8393 60.5395 47.3922 61.0079 47.0658 61.6039C46.7394 62.1999 46.5762 62.8811 46.5762 63.6475C46.5762 64.3996 46.7394 65.0808 47.0658 65.691C47.3922 66.3013 47.8393 66.7838 48.4069 67.1385C48.9888 67.4791 49.6345 67.6494 50.3441 67.6494Z" fill="white"/>
<path d="M47.3639 68.7989L46.8184 69.713L46.8294 69.7194L47.3639 68.7989ZM45.2777 66.6702L44.3536 67.1983L44.3536 67.1983L45.2777 66.6702ZM44.4901 63.6475H43.4256L43.4258 63.6609L44.4901 63.6475ZM44.7881 53.1529L44.0619 52.3748L44.0485 52.3873L44.0355 52.4003L44.7881 53.1529ZM46.6614 59.6881H45.597V62.6279L47.479 60.3694L46.6614 59.6881ZM48.4495 58.2831L48.9177 59.239L48.9255 59.2351L48.4495 58.2831ZM53.5584 58.5385L52.9859 59.4359L52.9971 59.4429L53.5584 58.5385ZM55.4955 60.646L54.5527 61.1398L54.5574 61.1488L54.5623 61.1578L55.4955 60.646ZM55.4317 66.6702L54.5138 66.1312L54.5076 66.1422L55.4317 66.6702ZM53.3455 68.7989L53.88 69.7195L53.891 69.7129L53.3455 68.7989ZM52.2812 67.1385L52.8288 68.0512L52.8371 68.0462L52.8453 68.0411L52.2812 67.1385ZM53.6223 65.691L52.6929 65.1723L52.6882 65.1806L52.6837 65.189L53.6223 65.691ZM53.6223 61.6039L52.6887 62.1151L52.6934 62.1236L52.6981 62.132L53.6223 61.6039ZM52.2812 60.1989L51.7171 61.1015L51.7253 61.1066L51.7336 61.1116L52.2812 60.1989ZM48.4069 60.1989L48.9545 61.1116L48.961 61.1077L48.4069 60.1989ZM47.0658 61.6039L47.9994 62.1151L47.9994 62.1151L47.0658 61.6039ZM47.0658 65.691L46.1273 66.193L46.1273 66.193L47.0658 65.691ZM48.4069 67.1385L47.8428 68.0411L47.8559 68.0493L47.8692 68.0571L48.4069 67.1385ZM50.3441 68.5009C49.4078 68.5009 48.6017 68.2869 47.8983 67.8785L46.8294 69.7194C47.8857 70.3327 49.0664 70.6296 50.3441 70.6296V68.5009ZM47.9093 67.885C47.1876 67.4543 46.6223 66.878 46.2018 66.1422L44.3536 67.1983C44.9549 68.2506 45.7804 69.0935 46.8184 69.7129L47.9093 67.885ZM46.2018 66.1422C45.7884 65.4187 45.5665 64.5909 45.5544 63.634L43.4258 63.6609C43.4421 64.9462 43.7452 66.1337 44.3536 67.1983L46.2018 66.1422ZM45.5544 63.6475V53.9405H43.4257V63.6475H45.5544ZM45.5544 53.9405C45.5544 53.8854 45.5627 53.8685 45.5601 53.8755C45.5589 53.8787 45.5562 53.8846 45.5517 53.8915C45.5472 53.8985 45.543 53.9033 45.5407 53.9055L44.0355 52.4003C43.6048 52.831 43.4257 53.3812 43.4257 53.9405H45.5544ZM45.5143 53.931C45.5172 53.9283 45.5193 53.9267 45.5205 53.9257C45.5217 53.9248 45.5223 53.9244 45.5224 53.9243C45.5224 53.9243 45.5222 53.9244 45.5218 53.9246C45.5214 53.9248 45.5212 53.9249 45.5213 53.9249C45.5214 53.9248 45.5222 53.9245 45.5238 53.9241C45.5254 53.9237 45.5282 53.923 45.5322 53.9223C45.5401 53.9209 45.5542 53.9192 45.5757 53.9192V51.7905C45.0152 51.7905 44.4869 51.9781 44.0619 52.3748L45.5143 53.931ZM45.5757 53.9192C45.6309 53.9192 45.6477 53.9275 45.6408 53.9249C45.6376 53.9237 45.6317 53.921 45.6247 53.9165C45.6178 53.912 45.613 53.9078 45.6107 53.9055L47.116 52.4003C46.6853 51.9696 46.1351 51.7905 45.5757 51.7905V53.9192ZM45.6107 53.9055C45.6085 53.9033 45.6043 53.8985 45.5998 53.8915C45.5953 53.8846 45.5926 53.8787 45.5914 53.8755C45.5888 53.8685 45.597 53.8854 45.597 53.9405H47.7257C47.7257 53.3812 47.5466 52.831 47.116 52.4003L45.6107 53.9055ZM45.597 53.9405V59.6881H47.7257V53.9405H45.597ZM47.479 60.3694C47.8801 59.8882 48.3571 59.5135 48.9177 59.239L47.9813 57.3272C47.1512 57.7339 46.4361 58.2958 45.8437 59.0067L47.479 60.3694ZM48.9255 59.2351C49.4791 58.9583 50.0883 58.8153 50.7698 58.8153V56.6866C49.7767 56.6866 48.8391 56.8983 47.9735 57.3311L48.9255 59.2351ZM50.7698 58.8153C51.6159 58.8153 52.3445 59.0266 52.986 59.4359L54.1308 57.6412C53.1261 57.0003 51.9956 56.6866 50.7698 56.6866V58.8153ZM52.9971 59.4429C53.6517 59.8492 54.1688 60.4069 54.5527 61.1398L56.4384 60.1521C55.8857 59.097 55.1113 58.2497 54.1197 57.6342L52.9971 59.4429ZM54.5623 61.1578C54.9491 61.863 55.1549 62.6839 55.1549 63.6475H57.2837C57.2837 62.3688 57.007 61.1886 56.4288 60.1342L54.5623 61.1578ZM55.1549 63.6475C55.1549 64.595 54.9352 65.4138 54.5139 66.1312L56.3495 67.2092C56.9783 66.1386 57.2837 64.9422 57.2837 63.6475H55.1549ZM54.5076 66.1422C54.0871 66.878 53.5218 67.4543 52.8001 67.885L53.891 69.7129C54.929 69.0935 55.7545 68.2506 56.3558 67.1983L54.5076 66.1422ZM52.8111 67.8785C52.1097 68.2857 51.2971 68.5009 50.3441 68.5009V70.6296C51.6332 70.6296 52.8216 70.3339 53.88 69.7194L52.8111 67.8785ZM50.3441 68.7138C51.2421 68.7138 52.0805 68.5002 52.8288 68.0512L51.7336 66.2259C51.3466 66.4581 50.8935 66.5851 50.3441 66.5851V68.7138ZM52.8453 68.0411C53.5761 67.5844 54.1498 66.9614 54.5608 66.193L52.6837 65.189C52.4419 65.6411 52.1216 65.9831 51.7171 66.236L52.8453 68.0411ZM54.5517 66.2098C54.9875 65.4289 55.1975 64.5669 55.1975 63.6475H53.0688C53.0688 64.2323 52.9383 64.7326 52.6929 65.1723L54.5517 66.2098ZM55.1975 63.6475C55.1975 62.7179 54.9892 61.8508 54.5464 61.0758L52.6981 62.132C52.9365 62.5491 53.0688 63.0443 53.0688 63.6475H55.1975ZM54.5558 61.0927C54.1412 60.3355 53.5629 59.7267 52.8288 59.2863L51.7336 61.1116C52.1348 61.3524 52.4505 61.6802 52.6887 62.1151L54.5558 61.0927ZM52.8453 59.2964C52.0947 58.8273 51.2505 58.6024 50.3441 58.6024V60.7311C50.8852 60.7311 51.3323 60.861 51.7171 61.1015L52.8453 59.2964ZM50.3441 58.6024C49.4474 58.6024 48.6086 58.8293 47.8528 59.2902L48.961 61.1077C49.3689 60.859 49.8215 60.7311 50.3441 60.7311V58.6024ZM47.8593 59.2863C47.1252 59.7267 46.5469 60.3355 46.1323 61.0927L47.9994 62.1151C48.2376 61.6802 48.5533 61.3524 48.9545 61.1116L47.8593 59.2863ZM46.1323 61.0927C45.7096 61.8646 45.5119 62.7256 45.5119 63.6475H47.6406C47.6406 63.0366 47.7693 62.5353 47.9994 62.1151L46.1323 61.0927ZM45.5119 63.6475C45.5119 64.5592 45.7112 65.4152 46.1273 66.193L48.0044 65.189C47.7676 64.7464 47.6406 64.24 47.6406 63.6475H45.5119ZM46.1273 66.193C46.5383 66.9614 47.112 67.5844 47.8428 68.0411L48.971 66.236C48.5665 65.9831 48.2462 65.6411 48.0044 65.189L46.1273 66.193ZM47.8692 68.0571C48.6229 68.4983 49.4558 68.7138 50.3441 68.7138V66.5851C49.8132 66.5851 49.3547 66.46 48.9446 66.22L47.8692 68.0571Z" fill="white"/>
<path d="M35.8688 74.6742C34.7619 74.6742 33.7685 74.4188 32.8886 73.9079C32.0087 73.3828 31.3134 72.6732 30.8025 71.7791C30.2916 70.8851 30.029 69.8775 30.0148 68.7564V59.0494C30.0148 58.723 30.1142 58.4605 30.3129 58.2618C30.5257 58.0631 30.7883 57.9638 31.1005 57.9638C31.4269 57.9638 31.6894 58.0631 31.8881 58.2618C32.0868 58.4605 32.1861 58.723 32.1861 59.0494V64.797C32.6828 64.2009 33.2789 63.7326 33.9742 63.392C34.6838 63.0372 35.4572 62.8598 36.2945 62.8598C37.3305 62.8598 38.2601 63.1224 39.0832 63.6475C39.9063 64.1584 40.552 64.8608 41.0203 65.7549C41.5028 66.6348 41.744 67.6353 41.744 68.7564C41.744 69.8775 41.4815 70.8851 40.9564 71.7791C40.4455 72.6732 39.7502 73.3828 38.8703 73.9079C37.9904 74.4188 36.9899 74.6742 35.8688 74.6742ZM35.8688 72.7584C36.5926 72.7584 37.2383 72.5881 37.8059 72.2475C38.3736 71.8927 38.8206 71.4102 39.147 70.7999C39.4876 70.1897 39.6579 69.5085 39.6579 68.7564C39.6579 67.99 39.4876 67.3089 39.147 66.7128C38.8206 66.1168 38.3736 65.6485 37.8059 65.3079C37.2383 64.9531 36.5926 64.7757 35.8688 64.7757C35.1592 64.7757 34.5135 64.9531 33.9317 65.3079C33.364 65.6485 32.917 66.1168 32.5906 66.7128C32.2642 67.3089 32.101 67.99 32.101 68.7564C32.101 69.5085 32.2642 70.1897 32.5906 70.7999C32.917 71.4102 33.364 71.8927 33.9317 72.2475C34.5135 72.5881 35.1592 72.7584 35.8688 72.7584Z" fill="white"/>
<path d="M32.8886 73.9079L32.3431 74.8219L32.3542 74.8283L32.8886 73.9079ZM30.8025 71.7791L29.8783 72.3072L29.8783 72.3072L30.8025 71.7791ZM30.0148 68.7564H28.9504L28.9506 68.7698L30.0148 68.7564ZM30.3129 58.2618L29.5866 57.4837L29.5732 57.4962L29.5602 57.5092L30.3129 58.2618ZM32.1861 64.797H31.1218V67.7368L33.0038 65.4784L32.1861 64.797ZM33.9742 63.392L34.4424 64.3479L34.4502 64.344L33.9742 63.392ZM39.0832 63.6475L38.5107 64.5449L38.5219 64.5518L39.0832 63.6475ZM41.0203 65.7549L40.0774 66.2488L40.0822 66.2578L40.087 66.2667L41.0203 65.7549ZM40.9564 71.7791L40.0386 71.2401L40.0323 71.2511L40.9564 71.7791ZM38.8703 73.9079L39.4048 74.8284L39.4157 74.8218L38.8703 73.9079ZM37.8059 72.2475L38.3535 73.1601L38.3618 73.1552L38.37 73.15L37.8059 72.2475ZM39.147 70.7999L38.2176 70.2812L38.213 70.2895L38.2085 70.2979L39.147 70.7999ZM39.147 66.7128L38.2135 67.224L38.2181 67.2325L38.2229 67.2409L39.147 66.7128ZM37.8059 65.3079L37.2418 66.2104L37.25 66.2156L37.2583 66.2205L37.8059 65.3079ZM33.9317 65.3079L34.4793 66.2206L34.4858 66.2166L33.9317 65.3079ZM32.5906 66.7128L33.5241 67.224L33.5241 67.224L32.5906 66.7128ZM32.5906 70.7999L31.6521 71.3019L31.6521 71.3019L32.5906 70.7999ZM33.9317 72.2475L33.3676 73.15L33.3807 73.1582L33.394 73.166L33.9317 72.2475ZM35.8688 73.6098C34.9326 73.6098 34.1265 73.3959 33.4231 72.9874L32.3542 74.8283C33.4105 75.4417 34.5912 75.7386 35.8688 75.7386V73.6098ZM33.434 72.9939C32.7123 72.5632 32.147 71.9869 31.7266 71.2511L29.8783 72.3072C30.4797 73.3595 31.3051 74.2024 32.3432 74.8218L33.434 72.9939ZM31.7266 71.2511C31.3132 70.5276 31.0912 69.6999 31.0791 68.7429L28.9506 68.7698C28.9668 70.0551 29.27 71.2426 29.8783 72.3072L31.7266 71.2511ZM31.0792 68.7564V59.0494H28.9505V68.7564H31.0792ZM31.0792 59.0494C31.0792 58.9943 31.0875 58.9774 31.0848 58.9844C31.0836 58.9876 31.0809 58.9935 31.0764 59.0004C31.0719 59.0074 31.0677 59.0122 31.0655 59.0144L29.5602 57.5092C29.1296 57.9399 28.9505 58.4901 28.9505 59.0494H31.0792ZM31.0391 59.0399C31.042 59.0373 31.044 59.0356 31.0452 59.0346C31.0465 59.0337 31.0471 59.0333 31.0471 59.0333C31.0472 59.0332 31.047 59.0334 31.0466 59.0336C31.0462 59.0337 31.046 59.0338 31.0461 59.0338C31.0462 59.0337 31.047 59.0335 31.0486 59.033C31.0502 59.0326 31.0529 59.0319 31.0569 59.0312C31.0649 59.0299 31.079 59.0282 31.1005 59.0282V56.8994C30.54 56.8994 30.0116 57.087 29.5866 57.4837L31.0391 59.0399ZM31.1005 59.0282C31.1556 59.0282 31.1725 59.0364 31.1655 59.0338C31.1623 59.0326 31.1564 59.0299 31.1495 59.0254C31.1425 59.0209 31.1377 59.0167 31.1355 59.0144L32.6407 57.5092C32.2101 57.0785 31.6598 56.8994 31.1005 56.8994V59.0282ZM31.1355 59.0144C31.1332 59.0122 31.129 59.0074 31.1245 59.0004C31.12 58.9935 31.1173 58.9876 31.1161 58.9844C31.1135 58.9774 31.1218 58.9943 31.1218 59.0494H33.2505C33.2505 58.4901 33.0714 57.9399 32.6407 57.5092L31.1355 59.0144ZM31.1218 59.0494V64.797H33.2505V59.0494H31.1218ZM33.0038 65.4784C33.4048 64.9971 33.8818 64.6225 34.4424 64.3479L33.5061 62.4362C32.6759 62.8428 31.9609 63.4047 31.3685 64.1156L33.0038 65.4784ZM34.4502 64.344C35.0038 64.0672 35.6131 63.9242 36.2945 63.9242V61.7955C35.3014 61.7955 34.3638 62.0073 33.4983 62.44L34.4502 64.344ZM36.2945 63.9242C37.1407 63.9242 37.8692 64.1356 38.5107 64.5448L39.6556 62.7501C38.6509 62.1092 37.5204 61.7955 36.2945 61.7955V63.9242ZM38.5219 64.5518C39.1765 64.9581 39.6935 65.5158 40.0774 66.2488L41.9631 65.261C41.4104 64.2059 40.636 63.3586 39.6445 62.7431L38.5219 64.5518ZM40.087 66.2667C40.4738 66.972 40.6797 67.7928 40.6797 68.7564H42.8084C42.8084 67.4777 42.5318 66.2976 41.9535 65.2431L40.087 66.2667ZM40.6797 68.7564C40.6797 69.7039 40.46 70.5227 40.0386 71.2401L41.8742 72.3182C42.503 71.2475 42.8084 70.0511 42.8084 68.7564H40.6797ZM40.0323 71.2511C39.6118 71.9869 39.0466 72.5632 38.3248 72.9939L39.4157 74.8218C40.4538 74.2024 41.2792 73.3595 41.8805 72.3072L40.0323 71.2511ZM38.3358 72.9874C37.6345 73.3946 36.8219 73.6098 35.8688 73.6098V75.7386C37.158 75.7386 38.3463 75.4429 39.4047 74.8283L38.3358 72.9874ZM35.8688 73.8227C36.7669 73.8227 37.6052 73.6091 38.3535 73.1601L37.2583 71.3348C36.8713 71.567 36.4182 71.694 35.8688 71.694V73.8227ZM38.37 73.15C39.1008 72.6933 39.6746 72.0703 40.0856 71.3019L38.2085 70.2979C37.9667 70.75 37.6464 71.0921 37.2418 71.3449L38.37 73.15ZM40.0764 71.3187C40.5122 70.5379 40.7223 69.6758 40.7223 68.7564H38.5936C38.5936 69.3412 38.463 69.8416 38.2176 70.2812L40.0764 71.3187ZM40.7223 68.7564C40.7223 67.8268 40.514 66.9597 40.0711 66.1847L38.2229 67.2409C38.4613 67.658 38.5936 68.1532 38.5936 68.7564H40.7223ZM40.0806 66.2016C39.6659 65.4445 39.0876 64.8356 38.3535 64.3952L37.2583 66.2205C37.6595 66.4613 37.9753 66.7891 38.2135 67.224L40.0806 66.2016ZM38.37 64.4053C37.6195 63.9362 36.7752 63.7113 35.8688 63.7113V65.84C36.4099 65.84 36.8571 65.97 37.2418 66.2104L38.37 64.4053ZM35.8688 63.7113C34.9722 63.7113 34.1334 63.9383 33.3776 64.3991L34.4858 66.2166C34.8937 65.9679 35.3463 65.84 35.8688 65.84V63.7113ZM33.3841 64.3952C32.65 64.8356 32.0717 65.4445 31.657 66.2016L33.5241 67.224C33.7623 66.7891 34.0781 66.4613 34.4793 66.2205L33.3841 64.3952ZM31.657 66.2016C31.2343 66.9735 31.0366 67.8345 31.0366 68.7564H33.1653C33.1653 68.1456 33.294 67.6442 33.5241 67.224L31.657 66.2016ZM31.0366 68.7564C31.0366 69.6681 31.236 70.5241 31.6521 71.3019L33.5291 70.2979C33.2924 69.8553 33.1653 69.349 33.1653 68.7564H31.0366ZM31.6521 71.3019C32.063 72.0703 32.6368 72.6933 33.3676 73.15L34.4958 71.3449C34.0912 71.0921 33.7709 70.75 33.5291 70.2979L31.6521 71.3019ZM33.394 73.166C34.1476 73.6072 34.9806 73.8227 35.8688 73.8227V71.694C35.3379 71.694 34.8794 71.5689 34.4694 71.3289L33.394 73.166Z" fill="white"/>
<path d="M75.8035 70.3529C75.4912 70.3529 75.2287 70.2536 75.0158 70.0549C74.8172 69.842 74.7178 69.5795 74.7178 69.2673V59.0494C74.7178 58.723 74.8172 58.4605 75.0158 58.2618C75.2287 58.0631 75.4912 57.9638 75.8035 57.9638C76.1299 57.9638 76.3924 58.0631 76.5911 58.2618C76.7898 58.4605 76.8891 58.723 76.8891 59.0494V69.2673C76.8891 69.5795 76.7898 69.842 76.5911 70.0549C76.3924 70.2536 76.1299 70.3529 75.8035 70.3529ZM84.5525 74.6103C84.2403 74.6103 83.9777 74.511 83.7648 74.3123C83.5662 74.0994 83.4668 73.8369 83.4668 73.5247V68.2881C83.4668 67.4791 83.3178 66.8192 83.0198 66.3084C82.7218 65.7975 82.3173 65.4214 81.8064 65.1801C81.3097 64.9247 80.735 64.797 80.0822 64.797C79.4861 64.797 78.9469 64.9176 78.4643 65.1589C77.9818 65.4001 77.5987 65.7265 77.3148 66.1381C77.031 66.5354 76.8891 66.9966 76.8891 67.5217H75.548C75.548 66.6277 75.7609 65.8329 76.1866 65.1376C76.6266 64.428 77.2226 63.8674 77.9747 63.4559C78.7269 63.0443 79.5713 62.8386 80.5079 62.8386C81.4871 62.8386 82.3599 63.0514 83.1262 63.4772C83.9068 63.8887 84.517 64.499 84.9569 65.3079C85.411 66.1168 85.6381 67.1102 85.6381 68.2881V73.5247C85.6381 73.8369 85.5317 74.0994 85.3188 74.3123C85.1201 74.511 84.8647 74.6103 84.5525 74.6103ZM75.8035 74.6103C75.4912 74.6103 75.2287 74.511 75.0158 74.3123C74.8172 74.0994 74.7178 73.8369 74.7178 73.5247V64.0306C74.7178 63.7042 74.8172 63.4417 75.0158 63.243C75.2287 63.0443 75.4912 62.945 75.8035 62.945C76.1299 62.945 76.3924 63.0443 76.5911 63.243C76.7898 63.4417 76.8891 63.7042 76.8891 64.0306V73.5247C76.8891 73.8369 76.7898 74.0994 76.5911 74.3123C76.3924 74.511 76.1299 74.6103 75.8035 74.6103Z" fill="white"/>
<path d="M75.0158 70.0549L74.2377 70.7811L74.2628 70.808L74.2896 70.833L75.0158 70.0549ZM75.0158 58.2618L74.2896 57.4837L74.2762 57.4962L74.2632 57.5092L75.0158 58.2618ZM76.5911 70.0549L77.3437 70.8075L77.3567 70.7945L77.3692 70.7811L76.5911 70.0549ZM83.7648 74.3123L82.9867 75.0385L83.0118 75.0654L83.0386 75.0904L83.7648 74.3123ZM83.0198 66.3084L82.1004 66.8447L82.1004 66.8447L83.0198 66.3084ZM81.8064 65.1801L81.3196 66.1267L81.3357 66.1349L81.3519 66.1426L81.8064 65.1801ZM78.4643 65.1589L77.9884 64.2069L77.9884 64.2069L78.4643 65.1589ZM77.3148 66.1381L78.1809 66.7567L78.186 66.7496L78.191 66.7423L77.3148 66.1381ZM76.8891 67.5217V68.5861H77.9535V67.5217H76.8891ZM75.548 67.5217H74.4837V68.5861H75.548V67.5217ZM76.1866 65.1376L75.282 64.5767L75.2789 64.5818L76.1866 65.1376ZM77.9747 63.4559L78.4856 64.3896L78.4856 64.3896L77.9747 63.4559ZM83.1262 63.4772L82.6093 64.4076L82.6195 64.4132L82.6298 64.4187L83.1262 63.4772ZM84.9569 65.3079L84.0219 65.8164L84.0253 65.8227L84.0288 65.8289L84.9569 65.3079ZM85.3188 74.3123L84.5662 73.5597L84.5662 73.5597L85.3188 74.3123ZM75.0158 74.3123L74.2377 75.0385L74.2628 75.0654L74.2896 75.0904L75.0158 74.3123ZM75.0158 63.243L74.2896 62.4649L74.2762 62.4774L74.2632 62.4904L75.0158 63.243ZM76.5911 74.3123L77.3437 75.0649L77.3567 75.052L77.3692 75.0385L76.5911 74.3123ZM75.8035 69.2886C75.7819 69.2886 75.7678 69.2869 75.7599 69.2855C75.7559 69.2848 75.7532 69.2841 75.7515 69.2837C75.7499 69.2833 75.7492 69.283 75.7491 69.2829C75.749 69.2829 75.7492 69.283 75.7496 69.2832C75.7499 69.2834 75.7502 69.2835 75.7501 69.2835C75.7501 69.2834 75.7494 69.283 75.7482 69.2821C75.747 69.2811 75.7449 69.2795 75.7421 69.2768L74.2896 70.833C74.7146 71.2297 75.243 71.4173 75.8035 71.4173V69.2886ZM75.7939 69.3287C75.7913 69.3258 75.7896 69.3237 75.7886 69.3225C75.7877 69.3213 75.7873 69.3207 75.7873 69.3206C75.7872 69.3206 75.7874 69.3208 75.7876 69.3212C75.7878 69.3216 75.7878 69.3218 75.7878 69.3217C75.7878 69.3216 75.7875 69.3208 75.787 69.3192C75.7866 69.3176 75.7859 69.3149 75.7852 69.3108C75.7839 69.3029 75.7822 69.2888 75.7822 69.2673H73.6535C73.6535 69.8278 73.8411 70.3561 74.2377 70.7811L75.7939 69.3287ZM75.7822 69.2673V59.0494H73.6535V69.2673H75.7822ZM75.7822 59.0494C75.7822 58.9943 75.7904 58.9774 75.7878 58.9844C75.7866 58.9876 75.7839 58.9935 75.7794 59.0004C75.7749 59.0074 75.7707 59.0122 75.7684 59.0144L74.2632 57.5092C73.8326 57.9399 73.6535 58.4901 73.6535 59.0494H75.7822ZM75.7421 59.0399C75.7449 59.0373 75.747 59.0356 75.7482 59.0346C75.7494 59.0337 75.7501 59.0333 75.7501 59.0333C75.7502 59.0332 75.7499 59.0334 75.7496 59.0336C75.7492 59.0337 75.749 59.0338 75.7491 59.0338C75.7492 59.0337 75.7499 59.0335 75.7515 59.033C75.7532 59.0326 75.7559 59.0319 75.7599 59.0312C75.7678 59.0299 75.7819 59.0282 75.8035 59.0282V56.8994C75.243 56.8994 74.7146 57.087 74.2896 57.4837L75.7421 59.0399ZM75.8035 59.0282C75.8586 59.0282 75.8755 59.0364 75.8685 59.0338C75.8653 59.0326 75.8594 59.0299 75.8525 59.0254C75.8455 59.0209 75.8407 59.0167 75.8385 59.0144L77.3437 57.5092C76.913 57.0785 76.3628 56.8994 75.8035 56.8994V59.0282ZM75.8385 59.0144C75.8362 59.0122 75.832 59.0074 75.8275 59.0004C75.823 58.9935 75.8203 58.9876 75.8191 58.9844C75.8165 58.9774 75.8247 58.9943 75.8247 59.0494H77.9535C77.9535 58.4901 77.7744 57.9399 77.3437 57.5092L75.8385 59.0144ZM75.8247 59.0494V69.2673H77.9535V59.0494H75.8247ZM75.8247 69.2673C75.8247 69.2888 75.823 69.3029 75.8217 69.3108C75.821 69.3149 75.8203 69.3176 75.8199 69.3192C75.8194 69.3208 75.8192 69.3216 75.8191 69.3217C75.8191 69.3218 75.8192 69.3216 75.8193 69.3212C75.8195 69.3208 75.8197 69.3206 75.8196 69.3206C75.8196 69.3207 75.8192 69.3213 75.8183 69.3225C75.8173 69.3237 75.8156 69.3258 75.813 69.3287L77.3692 70.7811C77.7659 70.3561 77.9535 69.8278 77.9535 69.2673H75.8247ZM75.8385 69.3023C75.8407 69.3 75.8455 69.2958 75.8525 69.2913C75.8594 69.2868 75.8653 69.2841 75.8685 69.2829C75.8755 69.2803 75.8586 69.2886 75.8035 69.2886V71.4173C76.3628 71.4173 76.913 71.2382 77.3437 70.8075L75.8385 69.3023ZM84.5525 73.546C84.5309 73.546 84.5168 73.5443 84.5089 73.5429C84.5049 73.5422 84.5022 73.5416 84.5006 73.5411C84.499 73.5407 84.4982 73.5404 84.4981 73.5404C84.498 73.5403 84.4982 73.5404 84.4986 73.5406C84.499 73.5408 84.4992 73.5409 84.4991 73.5409C84.4991 73.5409 84.4985 73.5405 84.4972 73.5395C84.496 73.5386 84.4939 73.5369 84.4911 73.5342L83.0386 75.0904C83.4636 75.4871 83.992 75.6747 84.5525 75.6747V73.546ZM84.5429 73.5861C84.5403 73.5832 84.5386 73.5812 84.5376 73.5799C84.5367 73.5787 84.5363 73.5781 84.5363 73.578C84.5362 73.578 84.5364 73.5782 84.5366 73.5786C84.5368 73.579 84.5368 73.5792 84.5368 73.5791C84.5368 73.579 84.5365 73.5782 84.536 73.5766C84.5356 73.575 84.5349 73.5723 84.5343 73.5683C84.5329 73.5603 84.5312 73.5462 84.5312 73.5247H82.4025C82.4025 74.0852 82.5901 74.6135 82.9867 75.0385L84.5429 73.5861ZM84.5312 73.5247V68.2881H82.4025V73.5247H84.5312ZM84.5312 68.2881C84.5312 67.3571 84.3608 66.4949 83.9392 65.7721L82.1004 66.8447C82.2748 67.1436 82.4025 67.6012 82.4025 68.2881H84.5312ZM83.9392 65.7721C83.5382 65.0846 82.9757 64.5552 82.2609 64.2177L81.3519 66.1426C81.6589 66.2876 81.9054 66.5103 82.1004 66.8447L83.9392 65.7721ZM82.2932 64.2336C81.6224 63.8886 80.8757 63.7326 80.0822 63.7326V65.8613C80.5942 65.8613 80.997 65.9607 81.3196 66.1267L82.2932 64.2336ZM80.0822 63.7326C79.3385 63.7326 78.6336 63.8842 77.9884 64.2069L78.9403 66.1108C79.2601 65.951 79.6338 65.8613 80.0822 65.8613V63.7326ZM77.9884 64.2069C77.3583 64.5219 76.8324 64.9629 76.4387 65.5338L78.191 66.7423C78.3649 66.4902 78.6054 66.2783 78.9403 66.1108L77.9884 64.2069ZM76.4487 65.5194C76.0261 66.1111 75.8247 66.7924 75.8247 67.5217H77.9535C77.9535 67.2008 78.0359 66.9597 78.1809 66.7567L76.4487 65.5194ZM76.8891 66.4574H75.548V68.5861H76.8891V66.4574ZM76.6124 67.5217C76.6124 66.8042 76.7808 66.2055 77.0944 65.6933L75.2789 64.5818C74.741 65.4604 74.4837 66.4511 74.4837 67.5217H76.6124ZM77.0912 65.6984C77.4316 65.1494 77.8902 64.7154 78.4856 64.3896L77.4638 62.5222C76.555 63.0194 75.8215 63.7066 75.282 64.5767L77.0912 65.6984ZM78.4856 64.3896C79.067 64.0715 79.7329 63.9029 80.5079 63.9029V61.7742C79.4096 61.7742 78.3868 62.0171 77.4638 62.5222L78.4856 64.3896ZM80.5079 63.9029C81.3278 63.9029 82.019 64.0796 82.6093 64.4076L83.6431 62.5468C82.7008 62.0233 81.6464 61.7742 80.5079 61.7742V63.9029ZM82.6298 64.4187C83.2163 64.7279 83.6777 65.1834 84.0219 65.8164L85.8919 64.7993C85.3563 63.8145 84.5972 63.0495 83.6227 62.5357L82.6298 64.4187ZM84.0288 65.8289C84.3726 66.4413 84.5738 67.2444 84.5738 68.2881H86.7025C86.7025 66.976 86.4495 65.7922 85.885 64.7868L84.0288 65.8289ZM84.5738 68.2881V73.5247H86.7025V68.2881H84.5738ZM84.5738 73.5247C84.5738 73.5421 84.5723 73.552 84.5716 73.5557C84.5709 73.5593 84.5707 73.5588 84.5719 73.5559C84.5731 73.5529 84.5745 73.5506 84.5749 73.5499C84.5753 73.5493 84.5732 73.5527 84.5662 73.5597L86.0714 75.0649C86.492 74.6443 86.7025 74.1075 86.7025 73.5247H84.5738ZM84.5662 73.5597C84.5661 73.5598 84.5691 73.5568 84.5752 73.5528C84.5813 73.5488 84.5875 73.5458 84.5924 73.5438C84.5972 73.542 84.5979 73.5424 84.5925 73.5433C84.5869 73.5443 84.5741 73.546 84.5525 73.546V75.6747C85.1126 75.6747 85.6501 75.4863 86.0714 75.0649L84.5662 73.5597ZM75.8035 73.546C75.7819 73.546 75.7678 73.5443 75.7599 73.5429C75.7559 73.5422 75.7532 73.5416 75.7515 73.5411C75.7499 73.5407 75.7492 73.5404 75.7491 73.5404C75.749 73.5403 75.7492 73.5404 75.7496 73.5406C75.7499 73.5408 75.7502 73.5409 75.7501 73.5409C75.7501 73.5409 75.7494 73.5405 75.7482 73.5395C75.747 73.5386 75.7449 73.5369 75.7421 73.5342L74.2896 75.0904C74.7146 75.4871 75.243 75.6747 75.8035 75.6747V73.546ZM75.7939 73.5861C75.7913 73.5832 75.7896 73.5812 75.7886 73.5799C75.7877 73.5787 75.7873 73.5781 75.7873 73.578C75.7872 73.578 75.7874 73.5782 75.7876 73.5786C75.7878 73.579 75.7878 73.5792 75.7878 73.5791C75.7878 73.579 75.7875 73.5782 75.787 73.5766C75.7866 73.575 75.7859 73.5723 75.7852 73.5683C75.7839 73.5603 75.7822 73.5462 75.7822 73.5247H73.6535C73.6535 74.0852 73.8411 74.6135 74.2377 75.0385L75.7939 73.5861ZM75.7822 73.5247V64.0306H73.6535V73.5247H75.7822ZM75.7822 64.0306C75.7822 63.9755 75.7904 63.9586 75.7878 63.9656C75.7866 63.9688 75.7839 63.9747 75.7794 63.9816C75.7749 63.9886 75.7707 63.9934 75.7684 63.9956L74.2632 62.4904C73.8326 62.9211 73.6535 63.4713 73.6535 64.0306H75.7822ZM75.7421 64.0211C75.7449 64.0184 75.747 64.0168 75.7482 64.0158C75.7494 64.0149 75.7501 64.0145 75.7501 64.0144C75.7502 64.0144 75.7499 64.0145 75.7496 64.0147C75.7492 64.0149 75.749 64.015 75.7491 64.015C75.7492 64.0149 75.7499 64.0146 75.7515 64.0142C75.7532 64.0138 75.7559 64.0131 75.7599 64.0124C75.7678 64.011 75.7819 64.0093 75.8035 64.0093V61.8806C75.243 61.8806 74.7146 62.0682 74.2896 62.4649L75.7421 64.0211ZM75.8035 64.0093C75.8586 64.0093 75.8755 64.0176 75.8685 64.015C75.8653 64.0138 75.8594 64.0111 75.8525 64.0066C75.8455 64.0021 75.8407 63.9979 75.8385 63.9956L77.3437 62.4904C76.913 62.0597 76.3628 61.8806 75.8035 61.8806V64.0093ZM75.8385 63.9956C75.8362 63.9934 75.832 63.9886 75.8275 63.9816C75.823 63.9747 75.8203 63.9688 75.8191 63.9656C75.8165 63.9586 75.8247 63.9755 75.8247 64.0306H77.9535C77.9535 63.4713 77.7744 62.9211 77.3437 62.4904L75.8385 63.9956ZM75.8247 64.0306V73.5247H77.9535V64.0306H75.8247ZM75.8247 73.5247C75.8247 73.5462 75.823 73.5603 75.8217 73.5683C75.821 73.5723 75.8203 73.575 75.8199 73.5766C75.8194 73.5782 75.8192 73.579 75.8191 73.5791C75.8191 73.5792 75.8192 73.579 75.8193 73.5786C75.8195 73.5782 75.8197 73.578 75.8196 73.578C75.8196 73.5781 75.8192 73.5787 75.8183 73.5799C75.8173 73.5812 75.8156 73.5832 75.813 73.5861L77.3692 75.0385C77.7659 74.6135 77.9535 74.0852 77.9535 73.5247H75.8247ZM75.8385 73.5597C75.8407 73.5575 75.8455 73.5532 75.8525 73.5487C75.8594 73.5442 75.8653 73.5416 75.8685 73.5404C75.8755 73.5377 75.8586 73.546 75.8035 73.546V75.6747C76.3628 75.6747 76.913 75.4956 77.3437 75.0649L75.8385 73.5597Z" fill="white"/>
<path d="M64.6703 74.6742C63.6343 74.6742 62.7048 74.4188 61.8817 73.9079C61.0586 73.3828 60.4058 72.6803 59.9233 71.8004C59.455 70.9064 59.2208 69.8988 59.2208 68.7777C59.2208 67.6565 59.4762 66.649 59.9871 65.7549C60.5122 64.8608 61.2147 64.1584 62.0946 63.6475C62.9886 63.1224 63.9891 62.8598 65.0961 62.8598C66.203 62.8598 67.1964 63.1224 68.0762 63.6475C68.9561 64.1584 69.6515 64.8608 70.1624 65.7549C70.6875 66.649 70.95 67.6565 70.95 68.7777H70.1198C70.1198 69.8988 69.8786 70.9064 69.3961 71.8004C68.9277 72.6803 68.282 73.3828 67.4589 73.9079C66.6358 74.4188 65.7063 74.6742 64.6703 74.6742ZM65.0961 72.7584C65.8198 72.7584 66.4655 72.5881 67.0332 72.2475C67.6008 71.8927 68.0479 71.4173 68.3743 70.8212C68.7007 70.211 68.8639 69.5298 68.8639 68.7777C68.8639 68.0113 68.7007 67.3301 68.3743 66.7341C68.0479 66.1239 67.6008 65.6485 67.0332 65.3079C66.4655 64.9531 65.8198 64.7757 65.0961 64.7757C64.3865 64.7757 63.7408 64.9531 63.1589 65.3079C62.5913 65.6485 62.1371 66.1239 61.7965 66.7341C61.4701 67.3301 61.3069 68.0113 61.3069 68.7777C61.3069 69.5298 61.4701 70.211 61.7965 70.8212C62.1371 71.4173 62.5913 71.8927 63.1589 72.2475C63.7408 72.5881 64.3865 72.7584 65.0961 72.7584ZM69.8644 74.6103C69.5522 74.6103 69.2896 74.511 69.0767 74.3123C68.8781 74.0994 68.7787 73.8369 68.7787 73.5247V70.2678L69.1832 68.0113L70.95 68.7777V73.5247C70.95 73.8369 70.8436 74.0994 70.6307 74.3123C70.432 74.511 70.1766 74.6103 69.8644 74.6103Z" fill="white"/>
<path d="M61.8817 73.9079L61.3092 74.8052L61.3204 74.8122L61.8817 73.9079ZM59.9233 71.8004L58.9804 72.2943L58.9852 72.3033L58.99 72.3122L59.9233 71.8004ZM59.9871 65.7549L59.0693 65.2158L59.063 65.2268L59.9871 65.7549ZM62.0946 63.6475L62.629 64.5679L62.6336 64.5652L62.0946 63.6475ZM68.0762 63.6475L67.5308 64.5615L67.5418 64.5679L68.0762 63.6475ZM70.1624 65.7549L69.2382 66.283L69.2446 66.2939L70.1624 65.7549ZM70.95 68.7777V69.842H72.0144V68.7777H70.95ZM70.1198 68.7777V67.7133H69.0555V68.7777H70.1198ZM69.3961 71.8004L68.4594 71.2949L68.4565 71.3003L69.3961 71.8004ZM67.4589 73.9079L68.0203 74.8123L68.0313 74.8052L67.4589 73.9079ZM67.0332 72.2475L67.5808 73.1601L67.5891 73.1552L67.5973 73.15L67.0332 72.2475ZM68.3743 70.8212L69.3079 71.3325L69.3128 71.3232L68.3743 70.8212ZM68.3743 66.7341L67.4357 67.2361L67.4407 67.2453L68.3743 66.7341ZM67.0332 65.3079L66.4691 66.2104L66.4773 66.2156L66.4856 66.2205L67.0332 65.3079ZM63.1589 65.3079L63.7065 66.2206L63.713 66.2166L63.1589 65.3079ZM61.7965 66.7341L60.8671 66.2154L60.863 66.2229L61.7965 66.7341ZM61.7965 70.8212L60.858 71.3232L60.865 71.3364L60.8724 71.3493L61.7965 70.8212ZM63.1589 72.2475L62.5948 73.15L62.6079 73.1582L62.6212 73.166L63.1589 72.2475ZM69.0767 74.3123L68.2986 75.0385L68.3237 75.0654L68.3505 75.0904L69.0767 74.3123ZM68.7787 70.2678L67.7311 70.08L67.7144 70.1731V70.2678H68.7787ZM69.1832 68.0113L69.6067 67.0349L68.3728 66.4997L68.1355 67.8235L69.1832 68.0113ZM70.95 68.7777H72.0144V68.0792L71.3735 67.8012L70.95 68.7777ZM70.6307 74.3123L71.3833 75.0649L71.3833 75.0649L70.6307 74.3123ZM64.6703 73.6098C63.8184 73.6098 63.0858 73.4025 62.443 73.0035L61.3204 74.8122C62.3238 75.435 63.4503 75.7386 64.6703 75.7386V73.6098ZM62.4541 73.0105C61.7861 72.5844 61.2555 72.0163 60.8565 71.2887L58.99 72.3122C59.556 73.3443 60.3311 74.1812 61.3093 74.8052L62.4541 73.0105ZM60.8661 71.3066C60.4862 70.5812 60.2852 69.7461 60.2852 68.7777H58.1564C58.1564 70.0514 58.4238 71.2316 58.9804 72.2943L60.8661 71.3066ZM60.2852 68.7777C60.2852 67.8248 60.5003 67.0021 60.9113 66.283L59.063 65.2268C58.4522 66.2958 58.1564 67.4882 58.1564 68.7777H60.2852ZM60.9049 66.2939C61.339 65.5547 61.9108 64.985 62.629 64.5679L61.5601 62.727C60.5186 63.3318 59.6854 64.1669 59.0694 65.2159L60.9049 66.2939ZM62.6336 64.5652C63.3531 64.1427 64.1653 63.9242 65.0961 63.9242V61.7955C63.8129 61.7955 62.6241 62.1021 61.5556 62.7297L62.6336 64.5652ZM65.0961 63.9242C66.0269 63.9242 66.8291 64.1427 67.5308 64.5614L68.6217 62.7335C67.5637 62.1021 66.3791 61.7955 65.0961 61.7955V63.9242ZM67.5418 64.5679C68.2574 64.9834 68.8192 65.5497 69.2383 66.283L71.0865 65.2268C70.4837 64.172 69.6548 63.3333 68.6107 62.727L67.5418 64.5679ZM69.2446 66.2939C69.666 67.0113 69.8857 67.8301 69.8857 68.7777H72.0144C72.0144 67.4829 71.709 66.2866 71.0802 65.2159L69.2446 66.2939ZM70.95 67.7133H70.1198V69.842H70.95V67.7133ZM69.0555 68.7777C69.0555 69.7409 68.8497 70.5718 68.4594 71.2949L70.3327 72.3059C70.9075 71.2409 71.1842 70.0566 71.1842 68.7777H69.0555ZM68.4565 71.3003C68.0724 72.0219 67.5517 72.5862 66.8865 73.0105L68.0313 74.8052C69.0123 74.1794 69.783 73.3387 70.3356 72.3005L68.4565 71.3003ZM66.8976 73.0035C66.2548 73.4025 65.5223 73.6098 64.6703 73.6098V75.7386C65.8903 75.7386 67.0168 75.435 68.0202 74.8122L66.8976 73.0035ZM65.0961 73.8227C65.9941 73.8227 66.8325 73.6091 67.5808 73.1601L66.4856 71.3348C66.0986 71.567 65.6455 71.694 65.0961 71.694V73.8227ZM67.5973 73.15C68.322 72.6971 68.8952 72.0859 69.3078 71.3325L67.4407 70.31C67.2005 70.7486 66.8797 71.0883 66.4691 71.3449L67.5973 73.15ZM69.3128 71.3232C69.7289 70.5454 69.9282 69.6894 69.9282 68.7777H67.7995C67.7995 69.3702 67.6725 69.8766 67.4357 70.3192L69.3128 71.3232ZM69.9282 68.7777C69.9282 67.8558 69.7305 66.9948 69.3078 66.2229L67.4407 67.2453C67.6708 67.6655 67.7995 68.1668 67.7995 68.7777H69.9282ZM69.3128 66.2321C68.8999 65.4602 68.3211 64.8394 67.5808 64.3952L66.4856 66.2205C66.8805 66.4575 67.1958 66.7875 67.4357 67.2361L69.3128 66.2321ZM67.5973 64.4053C66.8467 63.9362 66.0025 63.7113 65.0961 63.7113V65.84C65.6372 65.84 66.0843 65.97 66.4691 66.2104L67.5973 64.4053ZM65.0961 63.7113C64.1994 63.7113 63.3606 63.9383 62.6048 64.3991L63.713 66.2166C64.1209 65.9679 64.5735 65.84 65.0961 65.84V63.7113ZM62.6113 64.3952C61.8752 64.8369 61.2932 65.4521 60.8672 66.2154L62.7259 67.2528C62.9811 66.7956 63.3073 66.4601 63.7065 66.2205L62.6113 64.3952ZM60.863 66.2229C60.4403 66.9948 60.2426 67.8558 60.2426 68.7777H62.3713C62.3713 68.1668 62.5 67.6655 62.7301 67.2453L60.863 66.2229ZM60.2426 68.7777C60.2426 69.6894 60.442 70.5454 60.858 71.3232L62.7351 70.3192C62.4983 69.8766 62.3713 69.3702 62.3713 68.7777H60.2426ZM60.8724 71.3493C61.2979 72.0939 61.8742 72.6996 62.5948 73.15L63.723 71.3449C63.3084 71.0857 62.9763 70.7406 62.7207 70.2932L60.8724 71.3493ZM62.6212 73.166C63.3749 73.6072 64.2078 73.8227 65.0961 73.8227V71.694C64.5652 71.694 64.1067 71.5689 63.6966 71.3289L62.6212 73.166ZM69.8644 73.546C69.8428 73.546 69.8287 73.5443 69.8208 73.5429C69.8168 73.5422 69.8141 73.5416 69.8125 73.5411C69.8109 73.5407 69.8101 73.5404 69.81 73.5404C69.8099 73.5403 69.8101 73.5404 69.8105 73.5406C69.8109 73.5408 69.8111 73.5409 69.811 73.5409C69.811 73.5409 69.8104 73.5405 69.8091 73.5395C69.8079 73.5386 69.8058 73.5369 69.803 73.5342L68.3505 75.0904C68.7755 75.4871 69.3039 75.6747 69.8644 75.6747V73.546ZM69.8548 73.5861C69.8522 73.5832 69.8505 73.5812 69.8495 73.5799C69.8486 73.5787 69.8482 73.5781 69.8482 73.578C69.8481 73.578 69.8483 73.5782 69.8485 73.5786C69.8487 73.579 69.8487 73.5792 69.8487 73.5791C69.8487 73.579 69.8484 73.5782 69.8479 73.5766C69.8475 73.575 69.8469 73.5723 69.8462 73.5683C69.8448 73.5603 69.8431 73.5462 69.8431 73.5247H67.7144C67.7144 74.0852 67.902 74.6135 68.2986 75.0385L69.8548 73.5861ZM69.8431 73.5247V70.2678H67.7144V73.5247H69.8431ZM69.8264 70.4556L70.2308 68.1991L68.1355 67.8235L67.7311 70.08L69.8264 70.4556ZM68.7597 68.9878L70.5265 69.7541L71.3735 67.8012L69.6067 67.0349L68.7597 68.9878ZM69.8857 68.7777V73.5247H72.0144V68.7777H69.8857ZM69.8857 73.5247C69.8857 73.5421 69.8842 73.552 69.8835 73.5557C69.8828 73.5593 69.8826 73.5588 69.8838 73.5559C69.885 73.5529 69.8864 73.5506 69.8868 73.5499C69.8872 73.5493 69.8851 73.5527 69.8781 73.5597L71.3833 75.0649C71.8039 74.6443 72.0144 74.1075 72.0144 73.5247H69.8857ZM69.8781 73.5597C69.878 73.5598 69.881 73.5568 69.8871 73.5528C69.8932 73.5488 69.8994 73.5458 69.9043 73.5438C69.9091 73.542 69.9098 73.5424 69.9044 73.5433C69.8988 73.5443 69.886 73.546 69.8644 73.546V75.6747C70.4245 75.6747 70.962 75.4863 71.3833 75.0649L69.8781 73.5597Z" fill="white"/>
<path d="M31.8099 37.6037L32.7389 38.123C33.0159 37.6276 32.8553 37.0019 32.374 36.7011L31.8099 37.6037ZM25.3364 49.1843L24.4073 48.665C24.1793 49.0728 24.244 49.5816 24.5667 49.9195C24.8894 50.2573 25.3947 50.3452 25.8125 50.1362L25.3364 49.1843ZM40.6719 41.5133L40.9754 40.4932C40.7162 40.4161 40.4375 40.4405 40.1957 40.5614L40.6719 41.5133ZM85.3614 23.8587C85.3614 28.7635 82.1236 33.3732 76.5296 36.8122C70.953 40.2405 63.1817 42.3956 54.5414 42.3956V44.5243C63.5104 44.5243 71.6812 42.2916 77.6445 38.6256C83.5904 34.9703 87.4901 29.7794 87.4901 23.8587H85.3614ZM54.5414 5.32177C63.1817 5.32177 70.953 7.47692 76.5296 10.9052C82.1236 14.3442 85.3614 18.9539 85.3614 23.8587H87.4901C87.4901 17.938 83.5904 12.7471 77.6445 9.09178C71.6812 5.42581 63.5104 3.19306 54.5414 3.19306V5.32177ZM23.7214 23.8587C23.7214 18.9539 26.9592 14.3442 32.5532 10.9052C38.1298 7.47692 45.9011 5.32177 54.5414 5.32177V3.19306C45.5724 3.19306 37.4016 5.42581 31.4383 9.09178C25.4925 12.7471 21.5927 17.938 21.5927 23.8587H23.7214ZM32.374 36.7011C26.8892 33.2734 23.7214 28.7107 23.7214 23.8587H21.5927C21.5927 29.7154 25.4093 34.8587 31.2458 38.5063L32.374 36.7011ZM26.2654 49.7037L32.7389 38.123L30.8808 37.0843L24.4073 48.665L26.2654 49.7037ZM40.1957 40.5614L24.8602 48.2324L25.8125 50.1362L41.1481 42.4652L40.1957 40.5614ZM54.5414 42.3956C49.6688 42.3956 45.0661 41.71 40.9754 40.4932L40.3685 42.5335C44.6645 43.8114 49.4722 44.5243 54.5414 44.5243V42.3956Z" fill="white"/>
<mask id="path-14-inside-1_26_1847" fill="white">
<path d="M58.7525 20.2524C58.7525 22.6037 56.8463 24.5098 54.495 24.5098C52.1437 24.5098 50.2376 22.6037 50.2376 20.2524C50.2376 17.9011 52.1437 15.995 54.495 15.995C56.8463 15.995 58.7525 17.9011 58.7525 20.2524ZM52.5047 20.2524C52.5047 21.3517 53.3958 22.2428 54.495 22.2428C55.5943 22.2428 56.4854 21.3517 56.4854 20.2524C56.4854 19.1532 55.5943 18.262 54.495 18.262C53.3958 18.262 52.5047 19.1532 52.5047 20.2524Z"/>
</mask>
<path d="M58.7525 20.2524C58.7525 22.6037 56.8463 24.5098 54.495 24.5098C52.1437 24.5098 50.2376 22.6037 50.2376 20.2524C50.2376 17.9011 52.1437 15.995 54.495 15.995C56.8463 15.995 58.7525 17.9011 58.7525 20.2524ZM52.5047 20.2524C52.5047 21.3517 53.3958 22.2428 54.495 22.2428C55.5943 22.2428 56.4854 21.3517 56.4854 20.2524C56.4854 19.1532 55.5943 18.262 54.495 18.262C53.3958 18.262 52.5047 19.1532 52.5047 20.2524Z" fill="white" stroke="white" stroke-width="0.851485" mask="url(#path-14-inside-1_26_1847)"/>
<mask id="path-15-inside-2_26_1847" fill="white">
<path d="M45.1287 26.2128C45.1287 28.5641 43.2226 30.4702 40.8713 30.4702C38.52 30.4702 36.6139 28.5641 36.6139 26.2128C36.6139 23.8615 38.52 21.9554 40.8713 21.9554C43.2226 21.9554 45.1287 23.8615 45.1287 26.2128ZM38.8809 26.2128C38.8809 27.3121 39.7721 28.2032 40.8713 28.2032C41.9706 28.2032 42.8617 27.3121 42.8617 26.2128C42.8617 25.1136 41.9706 24.2224 40.8713 24.2224C39.7721 24.2224 38.8809 25.1136 38.8809 26.2128Z"/>
</mask>
<path d="M45.1287 26.2128C45.1287 28.5641 43.2226 30.4702 40.8713 30.4702C38.52 30.4702 36.6139 28.5641 36.6139 26.2128C36.6139 23.8615 38.52 21.9554 40.8713 21.9554C43.2226 21.9554 45.1287 23.8615 45.1287 26.2128ZM38.8809 26.2128C38.8809 27.3121 39.7721 28.2032 40.8713 28.2032C41.9706 28.2032 42.8617 27.3121 42.8617 26.2128C42.8617 25.1136 41.9706 24.2224 40.8713 24.2224C39.7721 24.2224 38.8809 25.1136 38.8809 26.2128Z" fill="white" stroke="white" stroke-width="0.851485" mask="url(#path-15-inside-2_26_1847)"/>
<mask id="path-16-inside-3_26_1847" fill="white">
<path d="M72.3762 25.3613C72.3762 27.7126 70.4701 29.6187 68.1188 29.6187C65.7675 29.6187 63.8614 27.7126 63.8614 25.3613C63.8614 23.01 65.7675 21.1039 68.1188 21.1039C70.4701 21.1039 72.3762 23.01 72.3762 25.3613ZM66.1284 25.3613C66.1284 26.4606 67.0196 27.3517 68.1188 27.3517C69.2181 27.3517 70.1092 26.4606 70.1092 25.3613C70.1092 24.2621 69.2181 23.3709 68.1188 23.3709C67.0196 23.3709 66.1284 24.2621 66.1284 25.3613Z"/>
</mask>
<path d="M72.3762 25.3613C72.3762 27.7126 70.4701 29.6187 68.1188 29.6187C65.7675 29.6187 63.8614 27.7126 63.8614 25.3613C63.8614 23.01 65.7675 21.1039 68.1188 21.1039C70.4701 21.1039 72.3762 23.01 72.3762 25.3613ZM66.1284 25.3613C66.1284 26.4606 67.0196 27.3517 68.1188 27.3517C69.2181 27.3517 70.1092 26.4606 70.1092 25.3613C70.1092 24.2621 69.2181 23.3709 68.1188 23.3709C67.0196 23.3709 66.1284 24.2621 66.1284 25.3613Z" fill="white" stroke="white" stroke-width="0.851485" mask="url(#path-16-inside-3_26_1847)"/>
</svg>
