<svg width="22" height="22" viewBox="0 0 22 22" fill="none" xmlns="http://www.w3.org/2000/svg">
<g clip-path="url(#clip0_457_3874)">
<path d="M10.3125 20.625H1.37502V1.37508H10.3125C10.692 1.37508 11 1.06706 11 0.687602C11 0.308145 10.6919 0.00012207 10.3125 0.00012207H0.68748C0.308023 0.00012207 0 0.308088 0 0.687602V21.3125C0 21.692 0.308023 22 0.68748 22H10.3124C10.6919 22 10.9999 21.692 10.9999 21.3125C11 20.933 10.6919 20.625 10.3125 20.625Z" fill="black"/>
<path d="M21.8005 10.5201L17.0568 5.7083C16.788 5.43673 16.3528 5.43742 16.0847 5.7083C15.8159 5.97918 15.8159 6.41915 16.0847 6.69003L19.6597 10.3166H5.50206C5.12254 10.3166 4.81458 10.6274 4.81458 11.011C4.81458 11.3946 5.1226 11.7054 5.50206 11.7054H19.6597L16.0847 15.3319C15.8159 15.6035 15.8159 16.0428 16.0847 16.3137C16.3535 16.5852 16.7887 16.5852 17.0568 16.3137L21.7999 11.5019C22.0652 11.2344 22.068 10.7869 21.8005 10.5201Z" fill="black"/>
</g>
<defs>
<clipPath id="clip0_457_3874">
<rect width="22" height="22" fill="white"/>
</clipPath>
</defs>
</svg>
