<svg width="16" height="24" viewBox="0 0 16 24" fill="none" xmlns="http://www.w3.org/2000/svg">
<path d="M5.20703 21.1036C5.20703 22.7033 6.50386 24.0001 8.10358 24.0001C9.7033 24.0001 11.0001 22.7033 11.0001 21.1036C11.0001 19.5039 9.7033 18.207 8.10358 18.207C6.50386 18.207 5.20703 19.5039 5.20703 21.1036Z" fill="#1E3092"/>
<path d="M5.20703 12.0001C5.20703 13.5998 6.50386 14.8966 8.10358 14.8966C9.7033 14.8966 11.0001 13.5998 11.0001 12.0001C11.0001 10.4003 9.7033 9.10352 8.10358 9.10352C6.50386 9.10352 5.20703 10.4003 5.20703 12.0001Z" fill="#1E3092"/>
<path d="M5.20703 2.89655C5.20703 4.49627 6.50386 5.7931 8.10358 5.7931C9.7033 5.7931 11.0001 4.49627 11.0001 2.89655C11.0001 1.29683 9.7033 0 8.10358 0C6.50386 0 5.20703 1.29683 5.20703 2.89655Z" fill="#1E3092"/>
</svg>
