<svg width="25" height="25" viewBox="0 0 25 25" fill="none" xmlns="http://www.w3.org/2000/svg">
<path d="M22.2595 0.908203H2.74054C1.22648 0.908203 0 2.1354 0 3.64874V16.0687C0 17.5821 1.22648 18.8093 2.74054 18.8093H3.80214L1.63461 23.1572C1.47949 23.4007 1.51644 23.7181 1.72218 23.9182C1.83953 24.0339 1.99304 24.0918 2.14732 24.0918C2.26311 24.0918 2.382 24.0581 2.4857 23.9889L11.5158 18.8093H22.2595C23.7736 18.8093 25 17.5821 25 16.0687V3.64874C25 2.1354 23.7735 0.908203 22.2595 0.908203ZM6.86439 11.6484C5.85801 11.6484 5.04214 10.8325 5.04214 9.82614C5.04214 8.81976 5.85801 8.0039 6.86439 8.0039C7.87081 8.0039 8.68663 8.81976 8.68663 9.82614C8.68663 10.8325 7.87076 11.6484 6.86439 11.6484ZM12.5 11.6484C11.4936 11.6484 10.6778 10.8325 10.6778 9.82614C10.6778 8.81976 11.4936 8.0039 12.5 8.0039C13.5064 8.0039 14.3223 8.81976 14.3223 9.82614C14.3223 10.8325 13.5064 11.6484 12.5 11.6484ZM18.1356 11.6484C17.1292 11.6484 16.3134 10.8325 16.3134 9.82614C16.3134 8.81976 17.1292 8.0039 18.1356 8.0039C19.142 8.0039 19.9579 8.81976 19.9579 9.82614C19.9579 10.8325 19.142 11.6484 18.1356 11.6484Z" fill="#CCCCCC"/>
</svg>
