<svg width="23" height="23" viewBox="0 0 23 23" fill="none" xmlns="http://www.w3.org/2000/svg">
<g clip-path="url(#clip0_377_3078)">
<path d="M20.9053 9.40071H13.5928V2.09422C13.5928 0.93769 12.6596 0 11.5031 0C10.3466 0 9.41395 0.93769 9.41395 2.09473V9.40577H2.09784C0.941304 9.40577 0.00108115 10.3435 0.00158774 11.5005C0.00108115 12.0785 0.234617 12.6084 0.613037 12.9868C0.991963 13.3663 1.51476 13.6059 2.09227 13.6059H9.41395V20.9068C9.41395 21.4853 9.64343 22.0091 10.0224 22.387C10.4013 22.766 10.9226 23.0005 11.5011 23.0005C12.6571 23.0005 13.5928 22.0628 13.5928 20.9068V13.6054H20.9053C22.0619 13.6054 22.9996 12.6596 22.9991 11.503C22.9985 10.347 22.0609 9.40071 20.9053 9.40071Z" fill="#1E3092"/>
</g>
<defs>
<clipPath id="clip0_377_3078">
<rect width="23" height="23" fill="white"/>
</clipPath>
</defs>
</svg>
