<svg width="18" height="20" viewBox="0 0 18 20" fill="none" xmlns="http://www.w3.org/2000/svg">
<g clip-path="url(#clip0_372_3081)">
<path d="M16.9928 18.5676L12.1152 12.8252C13.0768 11.4685 13.6551 9.73471 13.6551 7.84107C13.6551 3.52096 10.6415 0.00830078 6.93456 0.00830078C3.22763 0.00830078 0.207031 3.52505 0.207031 7.84517C0.207031 12.1653 3.22066 15.6779 6.9276 15.6779C8.50235 15.6779 9.95168 15.0426 11.1014 13.981L15.9964 19.7398C16.282 20.0759 16.7071 20.0759 16.9928 19.7398C17.2785 19.4037 17.2785 18.9037 16.9928 18.5676ZM1.63546 7.84517C1.63546 4.45138 4.01152 1.6929 6.9276 1.6929C9.84367 1.6929 12.2197 4.45138 12.2197 7.84517C12.2197 11.239 9.84367 13.9974 6.9276 13.9974C4.01152 13.9974 1.63546 11.2349 1.63546 7.84517Z" fill="#1E3092"/>
</g>
<defs>
<clipPath id="clip0_372_3081">
<rect width="17" height="20" fill="white" transform="translate(0.207031)"/>
</clipPath>
</defs>
</svg>
