<svg width="781" height="463" viewBox="0 0 781 463" fill="none" xmlns="http://www.w3.org/2000/svg">
<g clip-path="url(#clip0_401_3591)">
<g clip-path="url(#clip1_401_3591)">
<path d="M39.4907 416.814C16.9677 402.136 0.591479 375.752 3.9431 349.078C24.2237 370.135 51.2987 383.34 80.3778 386.356C91.5966 387.478 104.192 387.559 112.159 395.537C117.116 400.501 119.222 407.756 119.331 414.771C119.439 421.785 117.753 428.69 116.079 435.503L116.49 437.205C89.6252 436.212 62.0137 431.492 39.4907 416.814Z" fill="#BCC2DE"/>
<path d="M4.50705 349.073C12.9323 369.668 27.6327 387.085 46.5203 398.85C50.5414 401.455 54.948 403.41 59.5778 404.642C64.1266 405.697 68.8749 405.515 73.3295 404.114C77.5092 402.892 81.6429 401.157 86.047 400.972C88.3028 400.911 90.546 401.327 92.6297 402.193C94.7133 403.06 96.5903 404.357 98.1375 405.999C102.099 409.992 104.39 415.17 106.454 420.312C108.746 426.021 111.036 431.987 115.703 436.215C116.269 436.727 115.441 437.575 114.876 437.063C106.755 429.707 105.862 417.904 99.4783 409.37C96.4997 405.387 92.3029 402.278 87.1723 402.147C82.6857 402.032 78.4214 403.817 74.2001 405.091C69.8746 406.522 65.2647 406.871 60.7731 406.109C56.0954 405.116 51.6209 403.334 47.5411 400.84C38.2665 395.371 29.9095 388.478 22.7761 380.413C14.5838 371.254 8.0186 360.761 3.36463 349.388C3.07688 348.684 4.22114 348.373 4.50702 349.073H4.50705Z" fill="white"/>
<path d="M40.2157 395.42C37.8116 398.321 34.4546 400.273 30.7442 400.927C27.0339 401.581 23.2117 400.895 19.9603 398.992C19.3038 398.604 19.875 397.566 20.5324 397.954C23.5568 399.732 27.1172 400.371 30.5711 399.754C34.0249 399.138 37.1447 397.307 39.3673 394.593C39.851 394.003 40.6966 394.834 40.2157 395.42V395.42Z" fill="white"/>
<path d="M71.2919 405.013C70.6423 397.339 67.124 390.191 61.4386 384.996C60.8749 384.481 61.7027 383.634 62.2658 384.147C68.1721 389.565 71.8183 397.01 72.4767 404.998C72.5389 405.759 71.3538 405.77 71.2919 405.013V405.013Z" fill="white"/>
<path d="M16.0745 370.758C17.2386 369.829 18.1538 368.626 18.7379 367.256C19.3221 365.887 19.5569 364.393 19.4213 362.91C19.3494 362.15 20.5346 362.14 20.606 362.895C20.7482 364.534 20.4869 366.183 19.8449 367.698C19.2028 369.213 18.1996 370.547 16.9228 371.585C16.8107 371.693 16.6617 371.754 16.5061 371.756C16.3505 371.758 16.1999 371.701 16.0851 371.596C15.9733 371.486 15.9095 371.336 15.9075 371.179C15.9055 371.022 15.9655 370.871 16.0745 370.758V370.758Z" fill="white"/>
<path d="M80.7706 300.266C80.829 300.74 80.8873 301.213 80.9545 301.691C81.7721 308.052 83.1052 314.336 84.9405 320.48C85.0749 320.958 85.2182 321.439 85.3659 321.912C89.9454 336.669 97.2247 350.447 106.834 362.547C110.662 367.358 114.851 371.871 119.364 376.047C125.597 381.814 132.813 387.57 136.664 394.845C137.074 395.599 137.437 396.378 137.751 397.178L118.535 436.571C118.447 436.638 118.367 436.711 118.278 436.779L117.583 438.387C117.335 438.188 117.082 437.976 116.834 437.777C116.69 437.662 116.55 437.538 116.406 437.423C116.311 437.344 116.217 437.264 116.127 437.198C116.095 437.172 116.063 437.145 116.041 437.123C115.951 437.057 115.874 436.986 115.793 436.924C114.377 435.744 112.967 434.552 111.563 433.347C111.554 433.343 111.554 433.343 111.549 433.33C100.873 424.127 90.8711 413.953 82.7316 402.583C82.4868 402.241 82.2329 401.895 81.9969 401.535C78.3564 396.39 75.1425 390.956 72.3874 385.287C70.8888 382.178 69.5484 378.996 68.3716 375.751C65.347 367.362 63.6608 358.55 63.3746 349.637C62.8068 331.869 67.9278 314.118 79.8501 301.241C80.1553 300.912 80.4564 300.591 80.7706 300.266Z" fill="#BCC2DE"/>
<path d="M81.2273 300.599C75.5546 322.115 76.8058 344.873 84.8032 365.638C86.4455 370.139 88.787 374.352 91.7415 378.124C94.7382 381.705 98.6393 384.419 103.039 385.982C107.113 387.522 111.458 388.626 115.086 391.13C116.924 392.439 118.464 394.122 119.606 396.068C120.748 398.014 121.466 400.18 121.712 402.423C122.471 407.996 121.183 413.51 119.735 418.858C118.128 424.796 116.365 430.938 117.546 437.125C117.689 437.874 116.518 438.052 116.375 437.304C114.32 426.541 120.712 416.579 120.754 405.921C120.773 400.948 119.294 395.939 115.277 392.745C111.763 389.952 107.284 388.81 103.146 387.286C98.8314 385.824 94.9404 383.327 91.813 380.015C88.676 376.406 86.1761 372.289 84.4203 367.841C80.3076 357.891 77.7851 347.355 76.9451 336.621C75.9184 324.376 76.9941 312.045 80.1255 300.162C80.3196 299.427 81.4202 299.868 81.2273 300.599V300.599Z" fill="white"/>
<path d="M81.8345 359.103C78.1684 359.972 74.3129 359.509 70.9564 357.798C67.5999 356.086 64.9611 353.237 63.5112 349.76C63.2202 349.055 64.3015 348.57 64.5929 349.276C65.937 352.516 68.3954 355.17 71.5242 356.757C74.653 358.344 78.2462 358.761 81.6552 357.932C82.3962 357.752 82.5713 358.925 81.8345 359.103V359.103Z" fill="white"/>
<path d="M100.871 385.473C104.973 378.955 106.467 371.13 105.056 363.558C104.915 362.808 106.087 362.63 106.227 363.379C107.681 371.261 106.11 379.401 101.826 386.175C101.418 386.82 100.465 386.115 100.871 385.473Z" fill="white"/>
<path d="M77.4074 324.877C78.8959 324.837 80.3511 324.427 81.6422 323.685C82.9333 322.943 84.0198 321.892 84.8044 320.627C85.2047 319.976 86.1571 320.682 85.7593 321.328C84.8861 322.722 83.6847 323.882 82.26 324.704C80.8354 325.527 79.2309 325.989 77.5867 326.049C77.4322 326.067 77.2764 326.026 77.151 325.934C77.0256 325.842 76.9399 325.706 76.9114 325.553C76.8885 325.398 76.9277 325.24 77.0205 325.113C77.1134 324.987 77.2524 324.902 77.4074 324.877H77.4074Z" fill="white"/>
<path d="M726.838 416.814C749.361 402.136 765.738 375.752 762.386 349.078C742.105 370.135 715.03 383.34 685.951 386.356C674.732 387.478 662.138 387.559 654.17 395.537C649.213 400.501 647.107 407.756 646.998 414.771C646.89 421.785 648.576 428.69 650.25 435.503L649.839 437.205C676.704 436.212 704.315 431.492 726.838 416.814Z" fill="#BCC2DE"/>
<path d="M761.822 349.073C753.397 369.668 738.696 387.085 719.809 398.85C715.788 401.455 711.381 403.41 706.751 404.642C702.202 405.697 697.454 405.515 692.999 404.114C688.82 402.892 684.686 401.157 680.282 400.972C678.026 400.911 675.783 401.327 673.699 402.193C671.616 403.06 669.739 404.357 668.191 405.999C664.23 409.992 661.939 415.17 659.875 420.312C657.583 426.021 655.293 431.987 650.625 436.215C650.06 436.727 650.888 437.575 651.453 437.063C659.573 429.707 660.467 417.904 666.851 409.37C669.829 405.387 674.026 402.278 679.157 402.147C683.643 402.032 687.907 403.817 692.129 405.091C696.454 406.522 701.064 406.871 705.556 406.109C710.233 405.116 714.708 403.334 718.788 400.84C728.062 395.371 736.419 388.478 743.553 380.413C751.745 371.254 758.31 360.761 762.964 349.388C763.252 348.684 762.108 348.373 761.822 349.073H761.822Z" fill="white"/>
<path d="M726.113 395.42C728.517 398.321 731.874 400.273 735.585 400.927C739.295 401.581 743.117 400.895 746.369 398.992C747.025 398.604 746.454 397.566 745.797 397.954C742.772 399.732 739.212 400.371 735.758 399.754C732.304 399.138 729.184 397.307 726.962 394.593C726.478 394.003 725.632 394.834 726.113 395.42V395.42Z" fill="white"/>
<path d="M695.037 405.013C695.687 397.339 699.205 390.191 704.89 384.996C705.454 384.481 704.626 383.634 704.063 384.147C698.157 389.565 694.511 397.01 693.852 404.998C693.79 405.759 694.975 405.77 695.037 405.013V405.013Z" fill="white"/>
<path d="M750.254 370.758C749.09 369.829 748.175 368.626 747.591 367.256C747.007 365.887 746.772 364.393 746.908 362.91C746.979 362.15 745.794 362.14 745.723 362.895C745.581 364.534 745.842 366.183 746.484 367.698C747.126 369.213 748.129 370.547 749.406 371.585C749.518 371.693 749.667 371.754 749.823 371.756C749.978 371.758 750.129 371.701 750.244 371.596C750.356 371.486 750.419 371.336 750.421 371.179C750.423 371.022 750.363 370.871 750.254 370.758V370.758Z" fill="white"/>
<path d="M685.558 300.266C685.5 300.74 685.442 301.213 685.375 301.691C684.557 308.052 683.224 314.336 681.388 320.48C681.254 320.958 681.111 321.439 680.963 321.912C676.384 336.669 669.104 350.447 659.495 362.547C655.667 367.358 651.478 371.871 646.965 376.047C640.732 381.814 633.516 387.57 629.665 394.845C629.255 395.599 628.892 396.378 628.578 397.178L647.794 436.571C647.882 436.638 647.962 436.711 648.051 436.779L648.746 438.387C648.994 438.188 649.247 437.976 649.495 437.777C649.639 437.662 649.779 437.538 649.923 437.423C650.018 437.344 650.112 437.264 650.203 437.198C650.234 437.172 650.266 437.145 650.288 437.123C650.378 437.057 650.455 436.986 650.536 436.924C651.952 435.744 653.362 434.551 654.766 433.347C654.775 433.343 654.775 433.343 654.78 433.33C665.456 424.127 675.458 413.953 683.597 402.583C683.842 402.241 684.096 401.895 684.332 401.535C687.973 396.39 691.187 390.956 693.942 385.287C695.44 382.178 696.781 378.996 697.957 375.751C700.982 367.362 702.668 358.55 702.954 349.637C703.522 331.869 698.401 314.118 686.479 301.241C686.174 300.912 685.873 300.591 685.558 300.266Z" fill="#BCC2DE"/>
<path d="M685.102 300.599C690.774 322.115 689.523 344.873 681.526 365.638C679.883 370.139 677.542 374.352 674.587 378.124C671.591 381.705 667.69 384.419 663.29 385.982C659.216 387.522 654.871 388.626 651.243 391.13C649.405 392.439 647.865 394.122 646.723 396.068C645.581 398.014 644.863 400.18 644.617 402.423C643.857 407.996 645.146 413.51 646.593 418.858C648.201 424.796 649.964 430.938 648.783 437.125C648.64 437.874 649.811 438.052 649.954 437.304C652.009 426.541 645.617 416.579 645.575 405.921C645.556 400.948 647.035 395.939 651.052 392.745C654.565 389.952 659.045 388.81 663.183 387.286C667.497 385.824 671.388 383.327 674.516 380.015C677.653 376.406 680.153 372.289 681.909 367.841C686.021 357.891 688.544 347.355 689.384 336.621C690.41 324.376 689.335 312.045 686.203 300.162C686.009 299.427 684.909 299.868 685.102 300.599V300.599Z" fill="white"/>
<path d="M684.494 359.103C688.16 359.972 692.016 359.509 695.372 357.798C698.729 356.086 701.368 353.237 702.818 349.76C703.109 349.055 702.027 348.57 701.736 349.276C700.392 352.516 697.934 355.17 694.805 356.757C691.676 358.344 688.083 358.761 684.674 357.932C683.933 357.752 683.758 358.925 684.494 359.103V359.103Z" fill="white"/>
<path d="M665.458 385.473C661.356 378.955 659.862 371.13 661.273 363.558C661.413 362.808 660.242 362.63 660.102 363.379C658.648 371.261 660.219 379.401 664.503 386.175C664.911 386.82 665.864 386.115 665.458 385.473V385.473Z" fill="white"/>
<path d="M688.922 324.877C687.433 324.837 685.978 324.427 684.687 323.685C683.396 322.943 682.309 321.892 681.525 320.627C681.124 319.976 680.172 320.682 680.57 321.328C681.443 322.722 682.644 323.882 684.069 324.704C685.494 325.527 687.098 325.989 688.742 326.049C688.897 326.067 689.053 326.026 689.178 325.934C689.304 325.842 689.389 325.706 689.418 325.553C689.441 325.398 689.401 325.24 689.309 325.113C689.216 324.987 689.077 324.902 688.922 324.877H688.922Z" fill="white"/>
<path d="M645.173 439H123.684C118.314 438.994 113.165 436.858 109.368 433.061C105.57 429.263 103.434 424.115 103.428 418.744V27.2559C103.434 21.8855 105.57 16.7368 109.368 12.9394C113.165 9.14203 118.314 7.00603 123.684 7H645.173C650.543 7.00612 655.692 9.14218 659.489 12.9396C663.286 16.7369 665.422 21.8856 665.429 27.2559V418.744C665.422 424.114 663.286 429.263 659.489 433.06C655.692 436.858 650.543 438.994 645.173 439V439Z" fill="#ECEFFD"/>
<path d="M513.925 186.75H433.424C429.446 186.75 425.631 185.17 422.818 182.357C420.005 179.544 418.424 175.728 418.424 171.75C418.424 167.772 420.005 163.956 422.818 161.143C425.631 158.33 429.446 156.75 433.424 156.75H513.925C517.903 156.75 521.718 158.33 524.531 161.143C527.344 163.956 528.925 167.772 528.925 171.75C528.925 175.728 527.344 179.544 524.531 182.357C521.718 185.17 517.903 186.75 513.925 186.75Z" fill="white"/>
<path d="M443.424 227.75H424.424C422.966 227.75 421.567 227.171 420.535 226.139C419.504 225.108 418.924 223.709 418.924 222.25C418.924 220.791 419.504 219.392 420.535 218.361C421.567 217.329 422.966 216.75 424.424 216.75H443.424C444.883 216.75 446.282 217.329 447.313 218.361C448.345 219.392 448.924 220.791 448.924 222.25C448.924 223.709 448.345 225.108 447.313 226.139C446.282 227.171 444.883 227.75 443.424 227.75V227.75Z" fill="white"/>
<path d="M522.424 227.75H503.424C501.966 227.75 500.567 227.171 499.535 226.139C498.504 225.108 497.924 223.709 497.924 222.25C497.924 220.791 498.504 219.392 499.535 218.361C500.567 217.329 501.966 216.75 503.424 216.75H522.424C523.883 216.75 525.282 217.329 526.313 218.361C527.345 219.392 527.924 220.791 527.924 222.25C527.924 223.709 527.345 225.108 526.313 226.139C525.282 227.171 523.883 227.75 522.424 227.75V227.75Z" fill="white"/>
<path d="M482.424 227.75H463.424C461.966 227.75 460.567 227.171 459.535 226.139C458.504 225.108 457.924 223.709 457.924 222.25C457.924 220.791 458.504 219.392 459.535 218.361C460.567 217.329 461.966 216.75 463.424 216.75H482.424C483.883 216.75 485.282 217.329 486.313 218.361C487.345 219.392 487.924 220.791 487.924 222.25C487.924 223.709 487.345 225.108 486.313 226.139C485.282 227.171 483.883 227.75 482.424 227.75V227.75Z" fill="white"/>
<path d="M443.424 248.75H424.424C422.966 248.75 421.567 248.171 420.535 247.139C419.504 246.108 418.924 244.709 418.924 243.25C418.924 241.791 419.504 240.392 420.535 239.361C421.567 238.329 422.966 237.75 424.424 237.75H443.424C444.883 237.75 446.282 238.329 447.313 239.361C448.345 240.392 448.924 241.791 448.924 243.25C448.924 244.709 448.345 246.108 447.313 247.139C446.282 248.171 444.883 248.75 443.424 248.75Z" fill="white"/>
<path d="M522.424 248.75H503.424C501.966 248.75 500.567 248.171 499.535 247.139C498.504 246.108 497.924 244.709 497.924 243.25C497.924 241.791 498.504 240.392 499.535 239.361C500.567 238.329 501.966 237.75 503.424 237.75H522.424C523.883 237.75 525.282 238.329 526.313 239.361C527.345 240.392 527.924 241.791 527.924 243.25C527.924 244.709 527.345 246.108 526.313 247.139C525.282 248.171 523.883 248.75 522.424 248.75Z" fill="white"/>
<path d="M482.424 248.75H463.424C461.966 248.75 460.567 248.171 459.535 247.139C458.504 246.108 457.924 244.709 457.924 243.25C457.924 241.791 458.504 240.392 459.535 239.361C460.567 238.329 461.966 237.75 463.424 237.75H482.424C483.883 237.75 485.282 238.329 486.313 239.361C487.345 240.392 487.924 241.791 487.924 243.25C487.924 244.709 487.345 246.108 486.313 247.139C485.282 248.171 483.883 248.75 482.424 248.75Z" fill="white"/>
<path d="M443.424 269.75H424.424C422.966 269.75 421.567 269.171 420.535 268.139C419.504 267.108 418.924 265.709 418.924 264.25C418.924 262.791 419.504 261.392 420.535 260.361C421.567 259.329 422.966 258.75 424.424 258.75H443.424C444.883 258.75 446.282 259.329 447.313 260.361C448.345 261.392 448.924 262.791 448.924 264.25C448.924 265.709 448.345 267.108 447.313 268.139C446.282 269.171 444.883 269.75 443.424 269.75Z" fill="white"/>
<path d="M522.424 269.75H503.424C501.966 269.75 500.567 269.171 499.535 268.139C498.504 267.108 497.924 265.709 497.924 264.25C497.924 262.791 498.504 261.392 499.535 260.361C500.567 259.329 501.966 258.75 503.424 258.75H522.424C523.883 258.75 525.282 259.329 526.313 260.361C527.345 261.392 527.924 262.791 527.924 264.25C527.924 265.709 527.345 267.108 526.313 268.139C525.282 269.171 523.883 269.75 522.424 269.75Z" fill="white"/>
<path d="M482.424 269.75H463.424C461.966 269.75 460.567 269.171 459.535 268.139C458.504 267.108 457.924 265.709 457.924 264.25C457.924 262.791 458.504 261.392 459.535 260.361C460.567 259.329 461.966 258.75 463.424 258.75H482.424C483.883 258.75 485.282 259.329 486.313 260.361C487.345 261.392 487.924 262.791 487.924 264.25C487.924 265.709 487.345 267.108 486.313 268.139C485.282 269.171 483.883 269.75 482.424 269.75Z" fill="white"/>
<path d="M443.424 290.75H424.424C422.966 290.75 421.567 290.171 420.535 289.139C419.504 288.108 418.924 286.709 418.924 285.25C418.924 283.791 419.504 282.392 420.535 281.361C421.567 280.329 422.966 279.75 424.424 279.75H443.424C444.883 279.75 446.282 280.329 447.313 281.361C448.345 282.392 448.924 283.791 448.924 285.25C448.924 286.709 448.345 288.108 447.313 289.139C446.282 290.171 444.883 290.75 443.424 290.75Z" fill="white"/>
<path d="M522.424 290.75H503.424C501.966 290.75 500.567 290.171 499.535 289.139C498.504 288.108 497.924 286.709 497.924 285.25C497.924 283.791 498.504 282.392 499.535 281.361C500.567 280.329 501.966 279.75 503.424 279.75H522.424C523.883 279.75 525.282 280.329 526.313 281.361C527.345 282.392 527.924 283.791 527.924 285.25C527.924 286.709 527.345 288.108 526.313 289.139C525.282 290.171 523.883 290.75 522.424 290.75Z" fill="white"/>
<path d="M482.424 290.75H463.424C461.966 290.75 460.567 290.171 459.535 289.139C458.504 288.108 457.924 286.709 457.924 285.25C457.924 283.791 458.504 282.392 459.535 281.361C460.567 280.329 461.966 279.75 463.424 279.75H482.424C483.883 279.75 485.282 280.329 486.313 281.361C487.345 282.392 487.924 283.791 487.924 285.25C487.924 286.709 487.345 288.108 486.313 289.139C485.282 290.171 483.883 290.75 482.424 290.75Z" fill="white"/>
<path d="M314.924 268.75C343.091 268.75 365.924 245.917 365.924 217.75C365.924 189.583 343.091 166.75 314.924 166.75C286.758 166.75 263.924 189.583 263.924 217.75C263.924 245.917 286.758 268.75 314.924 268.75Z" fill="#BCC2DE"/>
<path d="M314.924 280.25C310.947 280.245 307.135 278.664 304.323 275.852C301.511 273.04 299.929 269.227 299.924 265.25V170.25C299.923 168.279 300.31 166.327 301.063 164.506C301.816 162.685 302.92 161.03 304.313 159.635C305.706 158.241 307.361 157.135 309.181 156.381C311.002 155.626 312.953 155.238 314.924 155.238C316.895 155.238 318.847 155.626 320.667 156.381C322.488 157.135 324.142 158.241 325.535 159.635C326.928 161.03 328.033 162.685 328.786 164.506C329.539 166.327 329.926 168.279 329.924 170.25V265.25C329.92 269.227 328.338 273.039 325.526 275.852C322.714 278.664 318.901 280.245 314.924 280.25V280.25Z" fill="white"/>
<path d="M448.161 180.309H434.161C433.63 180.309 433.121 180.098 432.746 179.723C432.371 179.348 432.161 178.84 432.161 178.309C432.161 177.779 432.371 177.27 432.746 176.895C433.121 176.52 433.63 176.309 434.161 176.309H448.161C448.691 176.309 449.2 176.52 449.575 176.895C449.95 177.27 450.161 177.779 450.161 178.309C450.161 178.84 449.95 179.348 449.575 179.723C449.2 180.098 448.691 180.309 448.161 180.309Z" fill="#E4E4E4"/>
<path d="M470.161 180.809H456.161C455.63 180.809 455.121 180.598 454.746 180.223C454.371 179.848 454.161 179.34 454.161 178.809C454.161 178.279 454.371 177.77 454.746 177.395C455.121 177.02 455.63 176.809 456.161 176.809H470.161C470.691 176.809 471.2 177.02 471.575 177.395C471.95 177.77 472.161 178.279 472.161 178.809C472.161 179.34 471.95 179.848 471.575 180.223C471.2 180.598 470.691 180.809 470.161 180.809Z" fill="#E4E4E4"/>
<path d="M492.161 181.309H478.161C477.63 181.309 477.121 181.098 476.746 180.723C476.371 180.348 476.161 179.84 476.161 179.309C476.161 178.779 476.371 178.27 476.746 177.895C477.121 177.52 477.63 177.309 478.161 177.309H492.161C492.691 177.309 493.2 177.52 493.575 177.895C493.95 178.27 494.161 178.779 494.161 179.309C494.161 179.84 493.95 180.348 493.575 180.723C493.2 181.098 492.691 181.309 492.161 181.309Z" fill="#E4E4E4"/>
<path d="M514.161 181.809H500.161C499.63 181.809 499.121 181.598 498.746 181.223C498.371 180.848 498.161 180.34 498.161 179.809C498.161 179.279 498.371 178.77 498.746 178.395C499.121 178.02 499.63 177.809 500.161 177.809H514.161C514.691 177.809 515.2 178.02 515.575 178.395C515.95 178.77 516.161 179.279 516.161 179.809C516.161 180.34 515.95 180.848 515.575 181.223C515.2 181.598 514.691 181.809 514.161 181.809Z" fill="#E4E4E4"/>
<path d="M169.924 377.249C169.923 379.725 170.414 382.177 171.369 384.462C172.323 386.747 173.722 388.819 175.484 390.559H167.224C164.786 390.559 162.373 390.079 160.121 389.146C157.87 388.214 155.824 386.847 154.1 385.123C152.377 383.4 151.01 381.354 150.077 379.102C149.145 376.851 148.665 374.437 148.665 372V71.1181C148.665 68.6809 149.145 66.2676 150.077 64.0159C151.01 61.7642 152.377 59.7183 154.1 57.9949C155.824 56.2715 157.87 54.9045 160.121 53.9718C162.373 53.0391 164.786 52.5591 167.224 52.5591H179.245C176.41 54.2079 174.057 56.5718 172.421 59.4146C170.786 62.2573 169.925 65.4794 169.924 68.7591L169.924 377.249Z" fill="#BCC2DE"/>
<path d="M780.015 441H3.98193C3.72124 440.999 3.4715 440.894 3.28743 440.706C3.10337 440.519 3 440.265 3 440C3 439.735 3.10337 439.481 3.28743 439.294C3.4715 439.106 3.72124 439.001 3.98193 439H780.015C780.276 439 780.527 439.105 780.712 439.293C780.896 439.48 781 439.735 781 440C781 440.265 780.896 440.52 780.712 440.707C780.527 440.895 780.276 441 780.015 441Z" fill="#CACACA"/>
<path d="M167.924 140.479C161.604 138.709 155.261 137.069 148.894 135.559C127.123 130.362 105.051 126.514 82.8045 124.039C79.0337 123.046 75.0233 123.583 71.6464 125.532C68.2695 127.482 65.7995 130.687 64.7742 134.449L53.6644 175.449C52.6443 179.228 53.1655 183.258 55.1135 186.653C57.0615 190.048 60.2771 192.532 64.0545 193.559L64.2044 193.589C78.9046 195.259 93.7444 197.579 108.504 200.539C109.825 200.799 111.135 201.069 112.454 201.349C117.184 202.329 121.901 203.375 126.604 204.489C128.664 204.969 130.714 205.469 132.774 205.979C138.314 207.359 143.858 208.829 149.405 210.389C155.575 212.129 161.748 213.985 167.924 215.959C168.595 216.159 169.264 216.369 169.924 216.589V141.049C169.264 140.849 168.595 140.659 167.924 140.479Z" fill="white"/>
<path d="M167.924 140.479C161.604 138.709 155.261 137.069 148.894 135.559C127.123 130.362 105.051 126.514 82.8045 124.039C79.0337 123.046 75.0233 123.583 71.6464 125.532C68.2695 127.482 65.7995 130.687 64.7742 134.449L53.6644 175.449C52.6443 179.228 53.1655 183.258 55.1135 186.653C57.0615 190.048 60.2771 192.532 64.0545 193.559L64.2044 193.589C78.9046 195.259 93.7444 197.579 108.504 200.539C109.825 200.799 111.135 201.069 112.454 201.349C117.184 202.329 121.901 203.375 126.604 204.489C128.664 204.969 130.714 205.469 132.774 205.979C138.314 207.359 143.858 208.829 149.405 210.389C155.575 212.129 161.748 213.985 167.924 215.959C168.595 216.159 169.264 216.369 169.924 216.589V214.479C169.254 214.269 168.584 214.059 167.924 213.849C162.244 212.039 156.571 210.335 150.905 208.739C148.784 208.129 146.664 207.539 144.544 206.969C140.724 205.939 136.915 204.952 133.115 204.009C131.095 203.499 129.078 203.009 127.064 202.539C126.914 202.499 126.754 202.469 126.604 202.429C123.174 201.619 119.737 200.845 116.294 200.109C114.974 199.829 113.655 199.549 112.334 199.279C96.4143 195.979 80.3742 193.409 64.5041 191.609C61.2581 190.705 58.5006 188.555 56.8319 185.628C55.1632 182.7 54.7185 179.232 55.5944 175.979L66.7043 134.969C67.5929 131.706 69.7399 128.929 72.674 127.247C75.6081 125.565 79.0895 125.116 82.3542 125.999L82.5041 126.019C104.468 128.458 126.262 132.238 147.764 137.339C147.984 137.399 148.204 137.449 148.424 137.499C154.945 139.059 161.445 140.745 167.924 142.559C168.584 142.739 169.254 142.929 169.924 143.129V141.049C169.264 140.849 168.595 140.659 167.924 140.479Z" fill="#29EF1B"/>
<path d="M169.924 142.089V215.529C169.254 215.309 168.595 215.099 167.924 214.889C162.015 212.999 156.085 211.219 150.135 209.549C144.424 207.929 138.694 206.406 132.945 204.979C130.905 204.479 128.874 203.989 126.834 203.509C126.754 203.149 126.674 202.789 126.604 202.429C126.234 200.709 125.945 198.969 125.725 197.219C125.624 196.549 125.555 195.879 125.484 195.199C124.432 184.485 125.899 173.674 129.767 163.628C133.636 153.582 139.799 144.58 147.765 137.339C148.055 137.059 148.354 136.789 148.655 136.529C155.115 138.069 161.538 139.736 167.924 141.529C168.595 141.699 169.265 141.889 169.924 142.089Z" fill="#29EF1B"/>
<path d="M103.514 172.159L75.7044 168.879C74.7261 168.763 73.7346 168.842 72.7865 169.109C71.8384 169.377 70.9523 169.829 70.1788 170.439C69.4053 171.049 68.7595 171.805 68.2783 172.665C67.7972 173.525 67.4901 174.471 67.3745 175.449C67.259 176.427 67.3373 177.419 67.6049 178.367C67.8726 179.315 68.3243 180.201 68.9344 180.975C69.5445 181.748 70.301 182.394 71.1606 182.875C72.0203 183.356 72.9663 183.663 73.9447 183.779L101.754 187.059C103.728 187.287 105.711 186.723 107.269 185.491C108.827 184.259 109.833 182.46 110.066 180.487C110.299 178.514 109.74 176.53 108.512 174.968C107.284 173.407 105.487 172.397 103.514 172.159V172.159ZM108.095 180.259C107.92 181.706 107.179 183.025 106.034 183.927C104.888 184.829 103.432 185.239 101.984 185.069L74.1742 181.789C72.73 181.613 71.4144 180.872 70.5156 179.728C69.6167 178.584 69.2078 177.131 69.3784 175.686C69.5491 174.241 70.2854 172.923 71.4261 172.02C72.5668 171.117 74.0188 170.703 75.4641 170.869L103.274 174.149C104.722 174.324 106.041 175.065 106.944 176.21C107.848 177.355 108.261 178.81 108.095 180.259L108.095 180.259Z" fill="#29EF1B"/>
<path d="M169.924 159.289V194.119C169.282 194.504 168.614 194.845 167.924 195.139C164.335 196.741 160.356 197.26 156.476 196.631C152.596 196.002 148.984 194.253 146.084 191.599C145.805 191.349 145.524 191.079 145.254 190.799C144.984 190.529 144.725 190.239 144.475 189.949C141.456 186.482 139.711 182.088 139.529 177.494C139.347 172.9 140.738 168.382 143.472 164.686C146.207 160.991 150.121 158.339 154.568 157.171C159.014 156.002 163.726 156.386 167.924 158.259C168.609 158.566 169.277 158.91 169.924 159.289V159.289Z" fill="white"/>
<path d="M167.924 184.499C160.055 186.139 152.238 187.955 144.475 189.949C141.575 190.689 138.685 191.455 135.805 192.249C132.365 193.199 128.925 194.182 125.484 195.199C121.095 196.499 116.711 197.859 112.334 199.279C111.064 199.699 109.785 200.119 108.504 200.539C96.3344 204.599 84.2446 209.099 72.3544 214.009C68.5707 214.955 65.3137 217.357 63.2928 220.692C61.2719 224.028 60.6507 228.027 61.5644 231.819L71.5947 273.099C72.5229 276.901 74.9214 280.179 78.264 282.215C81.6065 284.251 85.6201 284.878 89.4243 283.959L89.5644 283.909C109.117 275.889 129.129 269.037 149.495 263.389C155.575 261.699 161.718 260.106 167.924 258.609C168.595 258.449 169.254 258.289 169.924 258.139V184.089C169.254 184.209 168.595 184.349 167.924 184.499Z" fill="white"/>
<path d="M167.924 184.499C160.055 186.139 152.238 187.955 144.475 189.949C141.575 190.689 138.685 191.455 135.805 192.249C132.365 193.199 128.925 194.182 125.484 195.199C121.095 196.499 116.711 197.859 112.334 199.279C111.064 199.699 109.785 200.119 108.504 200.539C96.3344 204.599 84.2446 209.099 72.3544 214.009C68.5707 214.955 65.3137 217.357 63.2928 220.692C61.2719 224.028 60.6507 228.027 61.5644 231.819L71.5947 273.099C72.5229 276.901 74.9214 280.179 78.264 282.215C81.6065 284.251 85.6201 284.878 89.4243 283.959L89.5644 283.909C109.117 275.889 129.129 269.037 149.495 263.389C155.575 261.699 161.718 260.106 167.924 258.609C168.595 258.449 169.254 258.289 169.924 258.139V256.079C169.254 256.239 168.595 256.399 167.924 256.559C167.424 256.679 166.915 256.799 166.415 256.919C160.535 258.349 154.718 259.862 148.964 261.459C148.814 261.499 148.655 261.549 148.504 261.589C128.242 267.224 108.331 274.053 88.8744 282.039C85.5935 282.808 82.1416 282.251 79.2691 280.489C76.3966 278.727 74.3358 275.902 73.5346 272.629L63.5146 231.349C62.7194 228.062 63.2603 224.593 65.0187 221.705C66.7771 218.816 69.6094 216.742 72.8945 215.939L73.0444 215.889C85.9946 210.529 99.1742 205.669 112.455 201.349C113.734 200.929 115.015 200.519 116.294 200.109C119.434 199.119 122.578 198.156 125.725 197.219C129.044 196.229 132.361 195.276 135.674 194.359C135.894 194.299 136.115 194.239 136.334 194.179C139.575 193.289 142.825 192.429 146.084 191.599C153.314 189.759 160.594 188.069 167.924 186.529C168.584 186.389 169.254 186.249 169.924 186.119V184.089C169.254 184.209 168.595 184.349 167.924 184.499Z" fill="#29EF1B"/>
<path d="M169.924 185.099V257.109C169.264 257.259 168.595 257.409 167.924 257.569C161.664 259.089 155.431 260.709 149.224 262.429C148.974 262.149 148.734 261.869 148.504 261.589C142.025 254.004 137.264 245.106 134.548 235.507C131.833 225.907 131.228 215.834 132.774 205.979C132.825 205.649 132.885 205.309 132.945 204.979C132.994 204.659 133.054 204.329 133.115 204.009C133.732 200.734 134.587 197.509 135.674 194.359C135.804 193.979 135.934 193.599 136.075 193.219C139.124 192.379 142.184 191.572 145.254 190.799C152.764 188.859 160.321 187.095 167.924 185.509C168.584 185.359 169.254 185.229 169.924 185.099Z" fill="#29EF1B"/>
<path d="M123.454 250.329C122.705 248.487 121.255 247.018 119.423 246.244C117.592 245.47 115.528 245.454 113.684 246.199L87.7343 256.719C85.894 257.469 84.4266 258.919 83.6543 260.75C82.882 262.581 82.8679 264.643 83.615 266.485C84.3622 268.326 85.8096 269.796 87.6394 270.571C89.4692 271.346 91.5319 271.363 93.3744 270.619L119.325 260.099C121.165 259.347 122.633 257.898 123.406 256.067C124.18 254.236 124.198 252.173 123.454 250.329V250.329ZM118.575 258.239L92.6244 268.769C91.2723 269.316 89.7584 269.303 88.4154 268.735C87.0724 268.166 86.0099 267.088 85.4614 265.736C84.9129 264.385 84.9231 262.871 85.4899 261.527C86.0567 260.183 87.1337 259.119 88.4843 258.569L114.434 248.049C115.786 247.5 117.3 247.51 118.643 248.078C119.987 248.645 121.051 249.723 121.6 251.074C122.149 252.425 122.138 253.939 121.571 255.283C121.004 256.627 119.926 257.69 118.575 258.239V258.239Z" fill="#29EF1B"/>
<path d="M169.924 203.489V242.699C169.265 242.867 168.597 243 167.924 243.099C163.909 243.661 159.818 243.003 156.182 241.21C152.547 239.417 149.534 236.572 147.537 233.044C145.539 229.516 144.65 225.469 144.983 221.429C145.316 217.388 146.856 213.542 149.405 210.389C149.635 210.099 149.874 209.819 150.135 209.549C150.374 209.269 150.635 208.999 150.905 208.739C153.116 206.552 155.802 204.905 158.754 203.927C161.706 202.948 164.845 202.665 167.924 203.099C168.598 203.189 169.266 203.319 169.924 203.489V203.489Z" fill="white"/>
<path d="M167.924 135.269V235.079C168.595 234.859 169.265 234.649 169.924 234.449V136.179C169.254 135.869 168.595 135.569 167.924 135.269ZM167.924 135.269V235.079C168.595 234.859 169.265 234.649 169.924 234.449V136.179C169.254 135.869 168.595 135.569 167.924 135.269ZM167.924 135.269V235.079C168.595 234.859 169.265 234.649 169.924 234.449V136.179C169.254 135.869 168.595 135.569 167.924 135.269ZM167.924 142.559V257.569C168.595 257.409 169.265 257.259 169.924 257.109V143.129C169.254 142.929 168.584 142.739 167.924 142.559V142.559ZM167.924 142.559V257.569C168.595 257.409 169.265 257.259 169.924 257.109V143.129C169.254 142.929 168.584 142.739 167.924 142.559V142.559ZM167.924 142.559V257.569C168.595 257.409 169.265 257.259 169.924 257.109V143.129C169.254 142.929 168.584 142.739 167.924 142.559V142.559ZM167.924 142.559V257.569C168.595 257.409 169.265 257.259 169.924 257.109V143.129C169.254 142.929 168.584 142.739 167.924 142.559V142.559ZM167.924 142.559V258.609C168.595 258.449 169.254 258.289 169.924 258.139V143.129C169.254 142.929 168.584 142.739 167.924 142.559V142.559ZM604.174 47.9991H188.685C183.181 48.0082 177.906 50.1983 174.015 54.0896C170.124 57.9808 167.934 63.2559 167.924 68.759V377.249C167.934 382.751 170.124 388.025 174.016 391.915C177.907 395.804 183.182 397.992 188.685 397.999H604.174C609.676 397.992 614.949 395.804 618.839 391.914C622.729 388.024 624.918 382.75 624.924 377.249V68.759C624.92 63.2563 622.732 57.9801 618.842 54.0881C614.952 50.1961 609.677 48.0063 604.174 47.999V47.9991ZM622.924 377.249C622.919 382.22 620.942 386.986 617.427 390.502C613.912 394.017 609.146 395.994 604.174 395.999H188.685C183.712 395.994 178.945 394.018 175.428 390.503C171.911 386.988 169.932 382.221 169.924 377.249V68.759C169.932 63.7858 171.911 59.0185 175.427 55.5019C178.944 51.9854 183.711 50.0065 188.685 49.9991H604.174C609.147 50.0048 613.914 51.9834 617.43 55.5006C620.945 59.0179 622.921 63.7862 622.924 68.759V377.249ZM167.924 142.559V256.559C168.595 256.399 169.254 256.239 169.924 256.079V143.129C169.254 142.929 168.584 142.739 167.924 142.559V142.559ZM167.924 142.559V257.569C168.595 257.409 169.265 257.259 169.924 257.109V143.129C169.254 142.929 168.584 142.739 167.924 142.559V142.559ZM167.924 142.559V257.569C168.595 257.409 169.265 257.259 169.924 257.109V143.129C169.254 142.929 168.584 142.739 167.924 142.559V142.559ZM167.924 142.559V257.569C168.595 257.409 169.265 257.259 169.924 257.109V143.129C169.254 142.929 168.584 142.739 167.924 142.559V142.559ZM167.924 135.269V235.079C168.595 234.859 169.265 234.649 169.924 234.449V136.179C169.254 135.869 168.595 135.569 167.924 135.269V135.269ZM167.924 135.269V235.079C168.595 234.859 169.265 234.649 169.924 234.449V136.179C169.254 135.869 168.595 135.569 167.924 135.269V135.269Z" fill="#2F2E41"/>
</g>
</g>
<defs>
<clipPath id="clip0_401_3591">
<rect width="781" height="463" fill="white"/>
</clipPath>
<clipPath id="clip1_401_3591">
<rect width="913" height="434" fill="white" transform="translate(-147 7)"/>
</clipPath>
</defs>
</svg>
